<?xml version="1.0" encoding="utf-8" standalone="no"?>
<!DOCTYPE svg PUBLIC "-//W3C//DTD SVG 1.1//EN"
  "http://www.w3.org/Graphics/SVG/1.1/DTD/svg11.dtd">
<!-- Created with matplotlib (http://matplotlib.org/) -->
<svg height="99.37125pt" version="1.1" viewBox="0 0 496.85625 99.37125" width="496.85625pt" xmlns="http://www.w3.org/2000/svg" xmlns:xlink="http://www.w3.org/1999/xlink">
 <defs>
  <style type="text/css">
*{stroke-linecap:butt;stroke-linejoin:round;}
  </style>
 </defs>
 <g id="figure_1">
  <g id="patch_1">
   <path d="M 0 99.37125 
L 496.85625 99.37125 
L 496.85625 0 
L 0 0 
z
" style="fill:#ffffff;"/>
  </g>
  <g id="axes_1">
   <g id="patch_2">
    <path d="M 35.520939 83.01125 
L 486.05625 83.01125 
L 486.05625 9 
L 35.520939 9 
z
" style="fill:#ffffff;"/>
   </g>
   <g id="patch_3">
    <path clip-path="url(#p0987d61e29)" d="M 41.053829 17030.439727 
L 53.700434 17030.439727 
L 53.700434 13.465626 
L 41.053829 13.465626 
z
" style="fill:#422d3d;"/>
   </g>
   <g id="patch_4">
    <path clip-path="url(#p0987d61e29)" d="M 56.862086 17030.439727 
L 69.508691 17030.439727 
L 69.508691 17.426455 
L 56.862086 17.426455 
z
" style="fill:#64465f;"/>
   </g>
   <g id="patch_5">
    <path clip-path="url(#p0987d61e29)" d="M 72.670342 17030.439727 
L 85.316947 17030.439727 
L 85.316947 32.38938 
L 72.670342 32.38938 
z
" style="fill:#886282;"/>
   </g>
   <g id="patch_6">
    <path clip-path="url(#p0987d61e29)" d="M 88.478599 17030.439727 
L 101.125204 17030.439727 
L 101.125204 43.754088 
L 88.478599 43.754088 
z
" style="fill:#ad7fa8;"/>
   </g>
   <g id="patch_7">
    <path clip-path="url(#p0987d61e29)" d="M 104.286855 17030.439727 
L 116.93346 17030.439727 
L 116.93346 17030.439727 
L 104.286855 17030.439727 
z
" style="fill:#ff0000;"/>
   </g>
   <g id="patch_8">
    <path clip-path="url(#p0987d61e29)" d="M 120.095112 17030.439727 
L 132.741717 17030.439727 
L 132.741717 16.183702 
L 120.095112 16.183702 
z
" style="fill:#716c2c;"/>
   </g>
   <g id="patch_9">
    <path clip-path="url(#p0987d61e29)" d="M 135.903368 17030.439727 
L 148.549974 17030.439727 
L 148.549974 45.711771 
L 135.903368 45.711771 
z
" style="fill:#b9b24e;"/>
   </g>
   <g id="patch_10">
    <path clip-path="url(#p0987d61e29)" d="M 151.711625 17030.439727 
L 164.35823 17030.439727 
L 164.35823 17030.439727 
L 151.711625 17030.439727 
z
" style="fill:#ff0000;"/>
   </g>
   <g id="patch_11">
    <path clip-path="url(#p0987d61e29)" d="M 167.519881 17030.439727 
L 180.166487 17030.439727 
L 180.166487 17030.439727 
L 167.519881 17030.439727 
z
" style="fill:#1d3d47;"/>
   </g>
   <g id="patch_12">
    <path clip-path="url(#p0987d61e29)" d="M 183.328138 17030.439727 
L 195.974743 17030.439727 
L 195.974743 17030.439727 
L 183.328138 17030.439727 
z
" style="fill:#2a535f;"/>
   </g>
   <g id="patch_13">
    <path clip-path="url(#p0987d61e29)" d="M 199.136394 17030.439727 
L 211.783 17030.439727 
L 211.783 55.868161 
L 199.136394 55.868161 
z
" style="fill:#5399b0;"/>
   </g>
   <g id="patch_14">
    <path clip-path="url(#p0987d61e29)" d="M 214.944651 17030.439727 
L 227.591256 17030.439727 
L 227.591256 57.800298 
L 214.944651 57.800298 
z
" style="fill:#62b2cd;"/>
   </g>
   <g id="patch_15">
    <path clip-path="url(#p0987d61e29)" d="M 230.752907 17030.439727 
L 243.399513 17030.439727 
L 243.399513 17030.439727 
L 230.752907 17030.439727 
z
" style="fill:#72ccea;"/>
   </g>
   <g id="patch_16">
    <path clip-path="url(#p0987d61e29)" d="M 246.561164 17030.439727 
L 259.207769 17030.439727 
L 259.207769 17030.439727 
L 246.561164 17030.439727 
z
" style="fill:#ff0000;"/>
   </g>
   <g id="patch_17">
    <path clip-path="url(#p0987d61e29)" d="M 262.36942 17030.439727 
L 275.016026 17030.439727 
L 275.016026 12.364148 
L 262.36942 12.364148 
z
" style="fill:#1e341c;"/>
   </g>
   <g id="patch_18">
    <path clip-path="url(#p0987d61e29)" d="M 278.177677 17030.439727 
L 290.824282 17030.439727 
L 290.824282 38.982644 
L 278.177677 38.982644 
z
" style="fill:#41693e;"/>
   </g>
   <g id="patch_19">
    <path clip-path="url(#p0987d61e29)" d="M 293.985933 17030.439727 
L 306.632539 17030.439727 
L 306.632539 20.361203 
L 293.985933 20.361203 
z
" style="fill:#60a76d;"/>
   </g>
   <g id="patch_20">
    <path clip-path="url(#p0987d61e29)" d="M 309.79419 17030.439727 
L 322.440795 17030.439727 
L 322.440795 17030.439727 
L 309.79419 17030.439727 
z
" style="fill:#ff0000;"/>
   </g>
   <g id="patch_21">
    <path clip-path="url(#p0987d61e29)" d="M 325.602446 17030.439727 
L 338.249052 17030.439727 
L 338.249052 17030.439727 
L 325.602446 17030.439727 
z
" style="fill:#5f211e;"/>
   </g>
   <g id="patch_22">
    <path clip-path="url(#p0987d61e29)" d="M 341.410703 17030.439727 
L 354.057308 17030.439727 
L 354.057308 17030.439727 
L 341.410703 17030.439727 
z
" style="fill:#d7554b;"/>
   </g>
   <g id="patch_23">
    <path clip-path="url(#p0987d61e29)" d="M 357.218959 17030.439727 
L 369.865565 17030.439727 
L 369.865565 17030.439727 
L 357.218959 17030.439727 
z
" style="fill:#d7554b;"/>
   </g>
   <g id="patch_24">
    <path clip-path="url(#p0987d61e29)" d="M 373.027216 17030.439727 
L 385.673821 17030.439727 
L 385.673821 17030.439727 
L 373.027216 17030.439727 
z
" style="fill:#ff0000;"/>
   </g>
   <g id="patch_25">
    <path clip-path="url(#p0987d61e29)" d="M 388.835472 17030.439727 
L 401.482078 17030.439727 
L 401.482078 23.119907 
L 388.835472 23.119907 
z
" style="fill:#6a4124;"/>
   </g>
   <g id="patch_26">
    <path clip-path="url(#p0987d61e29)" d="M 404.643729 17030.439727 
L 417.290334 17030.439727 
L 417.290334 44.884555 
L 404.643729 44.884555 
z
" style="fill:#8c5832;"/>
   </g>
   <g id="patch_27">
    <path clip-path="url(#p0987d61e29)" d="M 420.451985 17030.439727 
L 433.098591 17030.439727 
L 433.098591 53.656637 
L 420.451985 53.656637 
z
" style="fill:#af6f41;"/>
   </g>
   <g id="patch_28">
    <path clip-path="url(#p0987d61e29)" d="M 436.260242 17030.439727 
L 448.906847 17030.439727 
L 448.906847 35.746194 
L 436.260242 35.746194 
z
" style="fill:#fba260;"/>
   </g>
   <g id="patch_29">
    <path clip-path="url(#p0987d61e29)" d="M 452.068499 17030.439727 
L 464.715104 17030.439727 
L 464.715104 17030.439727 
L 452.068499 17030.439727 
z
" style="fill:#ff0000;"/>
   </g>
   <g id="patch_30">
    <path clip-path="url(#p0987d61e29)" d="M 467.876755 17030.439727 
L 480.52336 17030.439727 
L 480.52336 60.70687 
L 467.876755 60.70687 
z
" style="fill:#808080;"/>
   </g>
   <g id="patch_31">
    <path clip-path="url(#p0987d61e29)" d="M 41.053829 17030.439727 
L 47.377132 17030.439727 
L 47.377132 17030.439727 
L 41.053829 17030.439727 
z
" style="fill:#422d3d;"/>
   </g>
   <g id="patch_32">
    <path clip-path="url(#p0987d61e29)" d="M 56.862086 17030.439727 
L 63.185388 17030.439727 
L 63.185388 17030.439727 
L 56.862086 17030.439727 
z
" style="fill:#64465f;"/>
   </g>
   <g id="patch_33">
    <path clip-path="url(#p0987d61e29)" d="M 72.670342 17030.439727 
L 78.993645 17030.439727 
L 78.993645 17030.439727 
L 72.670342 17030.439727 
z
" style="fill:#886282;"/>
   </g>
   <g id="patch_34">
    <path clip-path="url(#p0987d61e29)" d="M 88.478599 17030.439727 
L 94.801901 17030.439727 
L 94.801901 17030.439727 
L 88.478599 17030.439727 
z
" style="fill:#ad7fa8;"/>
   </g>
   <g id="patch_35">
    <path clip-path="url(#p0987d61e29)" d="M 104.286855 17030.439727 
L 110.610158 17030.439727 
L 110.610158 17030.439727 
L 104.286855 17030.439727 
z
" style="fill:#ff0000;"/>
   </g>
   <g id="patch_36">
    <path clip-path="url(#p0987d61e29)" d="M 120.095112 17030.439727 
L 126.418414 17030.439727 
L 126.418414 17030.439727 
L 120.095112 17030.439727 
z
" style="fill:#716c2c;"/>
   </g>
   <g id="patch_37">
    <path clip-path="url(#p0987d61e29)" d="M 135.903368 17030.439727 
L 142.226671 17030.439727 
L 142.226671 17030.439727 
L 135.903368 17030.439727 
z
" style="fill:#b9b24e;"/>
   </g>
   <g id="patch_38">
    <path clip-path="url(#p0987d61e29)" d="M 151.711625 17030.439727 
L 158.034927 17030.439727 
L 158.034927 17030.439727 
L 151.711625 17030.439727 
z
" style="fill:#ff0000;"/>
   </g>
   <g id="patch_39">
    <path clip-path="url(#p0987d61e29)" d="M 167.519881 17030.439727 
L 173.843184 17030.439727 
L 173.843184 23.344021 
L 167.519881 23.344021 
z
" style="fill:#1d3d47;"/>
   </g>
   <g id="patch_40">
    <path clip-path="url(#p0987d61e29)" d="M 183.328138 17030.439727 
L 189.65144 17030.439727 
L 189.65144 49.996097 
L 183.328138 49.996097 
z
" style="fill:#2a535f;"/>
   </g>
   <g id="patch_41">
    <path clip-path="url(#p0987d61e29)" d="M 199.136394 17030.439727 
L 205.459697 17030.439727 
L 205.459697 17030.439727 
L 199.136394 17030.439727 
z
" style="fill:#5399b0;"/>
   </g>
   <g id="patch_42">
    <path clip-path="url(#p0987d61e29)" d="M 214.944651 17030.439727 
L 221.267953 17030.439727 
L 221.267953 17030.439727 
L 214.944651 17030.439727 
z
" style="fill:#62b2cd;"/>
   </g>
   <g id="patch_43">
    <path clip-path="url(#p0987d61e29)" d="M 230.752907 17030.439727 
L 237.07621 17030.439727 
L 237.07621 47.821512 
L 230.752907 47.821512 
z
" style="fill:#72ccea;"/>
   </g>
   <g id="patch_44">
    <path clip-path="url(#p0987d61e29)" d="M 246.561164 17030.439727 
L 252.884466 17030.439727 
L 252.884466 17030.439727 
L 246.561164 17030.439727 
z
" style="fill:#ff0000;"/>
   </g>
   <g id="patch_45">
    <path clip-path="url(#p0987d61e29)" d="M 262.36942 17030.439727 
L 268.692723 17030.439727 
L 268.692723 17030.439727 
L 262.36942 17030.439727 
z
" style="fill:#1e341c;"/>
   </g>
   <g id="patch_46">
    <path clip-path="url(#p0987d61e29)" d="M 278.177677 17030.439727 
L 284.500979 17030.439727 
L 284.500979 17030.439727 
L 278.177677 17030.439727 
z
" style="fill:#41693e;"/>
   </g>
   <g id="patch_47">
    <path clip-path="url(#p0987d61e29)" d="M 293.985933 17030.439727 
L 300.309236 17030.439727 
L 300.309236 17030.439727 
L 293.985933 17030.439727 
z
" style="fill:#60a76d;"/>
   </g>
   <g id="patch_48">
    <path clip-path="url(#p0987d61e29)" d="M 309.79419 17030.439727 
L 316.117493 17030.439727 
L 316.117493 17030.439727 
L 309.79419 17030.439727 
z
" style="fill:#ff0000;"/>
   </g>
   <g id="patch_49">
    <path clip-path="url(#p0987d61e29)" d="M 325.602446 17030.439727 
L 331.925749 17030.439727 
L 331.925749 63.647127 
L 325.602446 63.647127 
z
" style="fill:#5f211e;"/>
   </g>
   <g id="patch_50">
    <path clip-path="url(#p0987d61e29)" d="M 341.410703 17030.439727 
L 347.734006 17030.439727 
L 347.734006 74.47315 
L 341.410703 74.47315 
z
" style="fill:#d7554b;"/>
   </g>
   <g id="patch_51">
    <path clip-path="url(#p0987d61e29)" d="M 357.218959 17030.439727 
L 363.542262 17030.439727 
L 363.542262 80.398155 
L 357.218959 80.398155 
z
" style="fill:#d7554b;"/>
   </g>
   <g id="patch_52">
    <path clip-path="url(#p0987d61e29)" d="M 373.027216 17030.439727 
L 379.350519 17030.439727 
L 379.350519 17030.439727 
L 373.027216 17030.439727 
z
" style="fill:#ff0000;"/>
   </g>
   <g id="patch_53">
    <path clip-path="url(#p0987d61e29)" d="M 388.835472 17030.439727 
L 395.158775 17030.439727 
L 395.158775 17030.439727 
L 388.835472 17030.439727 
z
" style="fill:#6a4124;"/>
   </g>
   <g id="patch_54">
    <path clip-path="url(#p0987d61e29)" d="M 404.643729 17030.439727 
L 410.967032 17030.439727 
L 410.967032 17030.439727 
L 404.643729 17030.439727 
z
" style="fill:#8c5832;"/>
   </g>
   <g id="patch_55">
    <path clip-path="url(#p0987d61e29)" d="M 420.451985 17030.439727 
L 426.775288 17030.439727 
L 426.775288 17030.439727 
L 420.451985 17030.439727 
z
" style="fill:#af6f41;"/>
   </g>
   <g id="patch_56">
    <path clip-path="url(#p0987d61e29)" d="M 436.260242 17030.439727 
L 442.583545 17030.439727 
L 442.583545 17030.439727 
L 436.260242 17030.439727 
z
" style="fill:#fba260;"/>
   </g>
   <g id="patch_57">
    <path clip-path="url(#p0987d61e29)" d="M 452.068499 17030.439727 
L 458.391801 17030.439727 
L 458.391801 17030.439727 
L 452.068499 17030.439727 
z
" style="fill:#ff0000;"/>
   </g>
   <g id="patch_58">
    <path clip-path="url(#p0987d61e29)" d="M 467.876755 17030.439727 
L 474.200058 17030.439727 
L 474.200058 17030.439727 
L 467.876755 17030.439727 
z
" style="fill:#808080;"/>
   </g>
   <g id="patch_59">
    <path clip-path="url(#p0987d61e29)" d="M 47.377132 17030.439727 
L 53.700434 17030.439727 
L 53.700434 17030.439727 
L 47.377132 17030.439727 
z
" style="fill:url(#h9d28241141);"/>
   </g>
   <g id="patch_60">
    <path clip-path="url(#p0987d61e29)" d="M 63.185388 17030.439727 
L 69.508691 17030.439727 
L 69.508691 17030.439727 
L 63.185388 17030.439727 
z
" style="fill:url(#hb0361dbc06);"/>
   </g>
   <g id="patch_61">
    <path clip-path="url(#p0987d61e29)" d="M 78.993645 17030.439727 
L 85.316947 17030.439727 
L 85.316947 17030.439727 
L 78.993645 17030.439727 
z
" style="fill:url(#hfa77f60170);"/>
   </g>
   <g id="patch_62">
    <path clip-path="url(#p0987d61e29)" d="M 94.801901 17030.439727 
L 101.125204 17030.439727 
L 101.125204 17030.439727 
L 94.801901 17030.439727 
z
" style="fill:url(#hea841d10f8);"/>
   </g>
   <g id="patch_63">
    <path clip-path="url(#p0987d61e29)" d="M 110.610158 17030.439727 
L 116.93346 17030.439727 
L 116.93346 17030.439727 
L 110.610158 17030.439727 
z
" style="fill:url(#hf39189199e);"/>
   </g>
   <g id="patch_64">
    <path clip-path="url(#p0987d61e29)" d="M 126.418414 17030.439727 
L 132.741717 17030.439727 
L 132.741717 17030.439727 
L 126.418414 17030.439727 
z
" style="fill:url(#h17f0b754a5);"/>
   </g>
   <g id="patch_65">
    <path clip-path="url(#p0987d61e29)" d="M 142.226671 17030.439727 
L 148.549974 17030.439727 
L 148.549974 17030.439727 
L 142.226671 17030.439727 
z
" style="fill:url(#h955cc6b328);"/>
   </g>
   <g id="patch_66">
    <path clip-path="url(#p0987d61e29)" d="M 158.034927 17030.439727 
L 164.35823 17030.439727 
L 164.35823 17030.439727 
L 158.034927 17030.439727 
z
" style="fill:url(#hf39189199e);"/>
   </g>
   <g id="patch_67">
    <path clip-path="url(#p0987d61e29)" d="M 173.843184 17030.439727 
L 180.166487 17030.439727 
L 180.166487 40.510177 
L 173.843184 40.510177 
z
" style="fill:url(#h566cdfc1fe);"/>
   </g>
   <g id="patch_68">
    <path clip-path="url(#p0987d61e29)" d="M 189.65144 17030.439727 
L 195.974743 17030.439727 
L 195.974743 57.936644 
L 189.65144 57.936644 
z
" style="fill:url(#h0c0264cd64);"/>
   </g>
   <g id="patch_69">
    <path clip-path="url(#p0987d61e29)" d="M 205.459697 17030.439727 
L 211.783 17030.439727 
L 211.783 17030.439727 
L 205.459697 17030.439727 
z
" style="fill:url(#hd3c280e24e);"/>
   </g>
   <g id="patch_70">
    <path clip-path="url(#p0987d61e29)" d="M 221.267953 17030.439727 
L 227.591256 17030.439727 
L 227.591256 17030.439727 
L 221.267953 17030.439727 
z
" style="fill:url(#hbaaa7498d8);"/>
   </g>
   <g id="patch_71">
    <path clip-path="url(#p0987d61e29)" d="M 237.07621 17030.439727 
L 243.399513 17030.439727 
L 243.399513 59.992628 
L 237.07621 59.992628 
z
" style="fill:url(#hbb24b31d2c);"/>
   </g>
   <g id="patch_72">
    <path clip-path="url(#p0987d61e29)" d="M 252.884466 17030.439727 
L 259.207769 17030.439727 
L 259.207769 17030.439727 
L 252.884466 17030.439727 
z
" style="fill:url(#hf39189199e);"/>
   </g>
   <g id="patch_73">
    <path clip-path="url(#p0987d61e29)" d="M 268.692723 17030.439727 
L 275.016026 17030.439727 
L 275.016026 17030.439727 
L 268.692723 17030.439727 
z
" style="fill:url(#hcb8a8c60af);"/>
   </g>
   <g id="patch_74">
    <path clip-path="url(#p0987d61e29)" d="M 284.500979 17030.439727 
L 290.824282 17030.439727 
L 290.824282 17030.439727 
L 284.500979 17030.439727 
z
" style="fill:url(#h3023d2e6f2);"/>
   </g>
   <g id="patch_75">
    <path clip-path="url(#p0987d61e29)" d="M 300.309236 17030.439727 
L 306.632539 17030.439727 
L 306.632539 17030.439727 
L 300.309236 17030.439727 
z
" style="fill:url(#h320d4546e2);"/>
   </g>
   <g id="patch_76">
    <path clip-path="url(#p0987d61e29)" d="M 316.117493 17030.439727 
L 322.440795 17030.439727 
L 322.440795 17030.439727 
L 316.117493 17030.439727 
z
" style="fill:url(#hf39189199e);"/>
   </g>
   <g id="patch_77">
    <path clip-path="url(#p0987d61e29)" d="M 331.925749 17030.439727 
L 338.249052 17030.439727 
L 338.249052 58.715261 
L 331.925749 58.715261 
z
" style="fill:url(#h6265ff1fe4);"/>
   </g>
   <g id="patch_78">
    <path clip-path="url(#p0987d61e29)" d="M 347.734006 17030.439727 
L 354.057308 17030.439727 
L 354.057308 63.619533 
L 347.734006 63.619533 
z
" style="fill:url(#he30edf343b);"/>
   </g>
   <g id="patch_79">
    <path clip-path="url(#p0987d61e29)" d="M 363.542262 17030.439727 
L 369.865565 17030.439727 
L 369.865565 78.875432 
L 363.542262 78.875432 
z
" style="fill:url(#he30edf343b);"/>
   </g>
   <g id="patch_80">
    <path clip-path="url(#p0987d61e29)" d="M 379.350519 17030.439727 
L 385.673821 17030.439727 
L 385.673821 17030.439727 
L 379.350519 17030.439727 
z
" style="fill:url(#hf39189199e);"/>
   </g>
   <g id="patch_81">
    <path clip-path="url(#p0987d61e29)" d="M 395.158775 17030.439727 
L 401.482078 17030.439727 
L 401.482078 17030.439727 
L 395.158775 17030.439727 
z
" style="fill:url(#h978b45b2a9);"/>
   </g>
   <g id="patch_82">
    <path clip-path="url(#p0987d61e29)" d="M 410.967032 17030.439727 
L 417.290334 17030.439727 
L 417.290334 17030.439727 
L 410.967032 17030.439727 
z
" style="fill:url(#h7d57350341);"/>
   </g>
   <g id="patch_83">
    <path clip-path="url(#p0987d61e29)" d="M 426.775288 17030.439727 
L 433.098591 17030.439727 
L 433.098591 17030.439727 
L 426.775288 17030.439727 
z
" style="fill:url(#h4bca444241);"/>
   </g>
   <g id="patch_84">
    <path clip-path="url(#p0987d61e29)" d="M 442.583545 17030.439727 
L 448.906847 17030.439727 
L 448.906847 17030.439727 
L 442.583545 17030.439727 
z
" style="fill:url(#h141c582ecd);"/>
   </g>
   <g id="patch_85">
    <path clip-path="url(#p0987d61e29)" d="M 458.391801 17030.439727 
L 464.715104 17030.439727 
L 464.715104 17030.439727 
L 458.391801 17030.439727 
z
" style="fill:url(#hf39189199e);"/>
   </g>
   <g id="patch_86">
    <path clip-path="url(#p0987d61e29)" d="M 474.200058 17030.439727 
L 480.52336 17030.439727 
L 480.52336 17030.439727 
L 474.200058 17030.439727 
z
" style="fill:url(#h0a8d6ce1e5);"/>
   </g>
   <g id="matplotlib.axis_1">
    <g id="xtick_1">
     <g id="line2d_1">
      <defs>
       <path d="M 0 0 
L 0 6 
" id="mcd630cf074" style="stroke:#000000;stroke-width:0.8;"/>
      </defs>
      <g>
       <use style="stroke:#000000;stroke-width:0.8;" x="35.520939" xlink:href="#mcd630cf074" y="83.01125"/>
      </g>
     </g>
    </g>
    <g id="xtick_2">
     <g id="line2d_2">
      <g>
       <use style="stroke:#000000;stroke-width:0.8;" x="110.610158" xlink:href="#mcd630cf074" y="83.01125"/>
      </g>
     </g>
    </g>
    <g id="xtick_3">
     <g id="line2d_3">
      <g>
       <use style="stroke:#000000;stroke-width:0.8;" x="158.034927" xlink:href="#mcd630cf074" y="83.01125"/>
      </g>
     </g>
    </g>
    <g id="xtick_4">
     <g id="line2d_4">
      <g>
       <use style="stroke:#000000;stroke-width:0.8;" x="252.884466" xlink:href="#mcd630cf074" y="83.01125"/>
      </g>
     </g>
    </g>
    <g id="xtick_5">
     <g id="line2d_5">
      <g>
       <use style="stroke:#000000;stroke-width:0.8;" x="316.117493" xlink:href="#mcd630cf074" y="83.01125"/>
      </g>
     </g>
    </g>
    <g id="xtick_6">
     <g id="line2d_6">
      <g>
       <use style="stroke:#000000;stroke-width:0.8;" x="379.350519" xlink:href="#mcd630cf074" y="83.01125"/>
      </g>
     </g>
    </g>
    <g id="xtick_7">
     <g id="line2d_7">
      <g>
       <use style="stroke:#000000;stroke-width:0.8;" x="458.391801" xlink:href="#mcd630cf074" y="83.01125"/>
      </g>
     </g>
    </g>
    <g id="xtick_8">
     <g id="line2d_8"/>
     <g id="text_1">
      <!-- ground -->
      <defs>
       <path d="M 45.40625 27.984375 
Q 45.40625 37.75 41.375 43.109375 
Q 37.359375 48.484375 30.078125 48.484375 
Q 22.859375 48.484375 18.828125 43.109375 
Q 14.796875 37.75 14.796875 27.984375 
Q 14.796875 18.265625 18.828125 12.890625 
Q 22.859375 7.515625 30.078125 7.515625 
Q 37.359375 7.515625 41.375 12.890625 
Q 45.40625 18.265625 45.40625 27.984375 
z
M 54.390625 6.78125 
Q 54.390625 -7.171875 48.1875 -13.984375 
Q 42 -20.796875 29.203125 -20.796875 
Q 24.46875 -20.796875 20.265625 -20.09375 
Q 16.0625 -19.390625 12.109375 -17.921875 
L 12.109375 -9.1875 
Q 16.0625 -11.328125 19.921875 -12.34375 
Q 23.78125 -13.375 27.78125 -13.375 
Q 36.625 -13.375 41.015625 -8.765625 
Q 45.40625 -4.15625 45.40625 5.171875 
L 45.40625 9.625 
Q 42.625 4.78125 38.28125 2.390625 
Q 33.9375 0 27.875 0 
Q 17.828125 0 11.671875 7.65625 
Q 5.515625 15.328125 5.515625 27.984375 
Q 5.515625 40.671875 11.671875 48.328125 
Q 17.828125 56 27.875 56 
Q 33.9375 56 38.28125 53.609375 
Q 42.625 51.21875 45.40625 46.390625 
L 45.40625 54.6875 
L 54.390625 54.6875 
z
" id="DejaVuSans-67"/>
       <path d="M 41.109375 46.296875 
Q 39.59375 47.171875 37.8125 47.578125 
Q 36.03125 48 33.890625 48 
Q 26.265625 48 22.1875 43.046875 
Q 18.109375 38.09375 18.109375 28.8125 
L 18.109375 0 
L 9.078125 0 
L 9.078125 54.6875 
L 18.109375 54.6875 
L 18.109375 46.1875 
Q 20.953125 51.171875 25.484375 53.578125 
Q 30.03125 56 36.53125 56 
Q 37.453125 56 38.578125 55.875 
Q 39.703125 55.765625 41.0625 55.515625 
z
" id="DejaVuSans-72"/>
       <path d="M 30.609375 48.390625 
Q 23.390625 48.390625 19.1875 42.75 
Q 14.984375 37.109375 14.984375 27.296875 
Q 14.984375 17.484375 19.15625 11.84375 
Q 23.34375 6.203125 30.609375 6.203125 
Q 37.796875 6.203125 41.984375 11.859375 
Q 46.1875 17.53125 46.1875 27.296875 
Q 46.1875 37.015625 41.984375 42.703125 
Q 37.796875 48.390625 30.609375 48.390625 
z
M 30.609375 56 
Q 42.328125 56 49.015625 48.375 
Q 55.71875 40.765625 55.71875 27.296875 
Q 55.71875 13.875 49.015625 6.21875 
Q 42.328125 -1.421875 30.609375 -1.421875 
Q 18.84375 -1.421875 12.171875 6.21875 
Q 5.515625 13.875 5.515625 27.296875 
Q 5.515625 40.765625 12.171875 48.375 
Q 18.84375 56 30.609375 56 
z
" id="DejaVuSans-6f"/>
       <path d="M 8.5 21.578125 
L 8.5 54.6875 
L 17.484375 54.6875 
L 17.484375 21.921875 
Q 17.484375 14.15625 20.5 10.265625 
Q 23.53125 6.390625 29.59375 6.390625 
Q 36.859375 6.390625 41.078125 11.03125 
Q 45.3125 15.671875 45.3125 23.6875 
L 45.3125 54.6875 
L 54.296875 54.6875 
L 54.296875 0 
L 45.3125 0 
L 45.3125 8.40625 
Q 42.046875 3.421875 37.71875 1 
Q 33.40625 -1.421875 27.6875 -1.421875 
Q 18.265625 -1.421875 13.375 4.4375 
Q 8.5 10.296875 8.5 21.578125 
z
M 31.109375 56 
z
" id="DejaVuSans-75"/>
       <path d="M 54.890625 33.015625 
L 54.890625 0 
L 45.90625 0 
L 45.90625 32.71875 
Q 45.90625 40.484375 42.875 44.328125 
Q 39.84375 48.1875 33.796875 48.1875 
Q 26.515625 48.1875 22.3125 43.546875 
Q 18.109375 38.921875 18.109375 30.90625 
L 18.109375 0 
L 9.078125 0 
L 9.078125 54.6875 
L 18.109375 54.6875 
L 18.109375 46.1875 
Q 21.34375 51.125 25.703125 53.5625 
Q 30.078125 56 35.796875 56 
Q 45.21875 56 50.046875 50.171875 
Q 54.890625 44.34375 54.890625 33.015625 
z
" id="DejaVuSans-6e"/>
       <path d="M 45.40625 46.390625 
L 45.40625 75.984375 
L 54.390625 75.984375 
L 54.390625 0 
L 45.40625 0 
L 45.40625 8.203125 
Q 42.578125 3.328125 38.25 0.953125 
Q 33.9375 -1.421875 27.875 -1.421875 
Q 17.96875 -1.421875 11.734375 6.484375 
Q 5.515625 14.40625 5.515625 27.296875 
Q 5.515625 40.1875 11.734375 48.09375 
Q 17.96875 56 27.875 56 
Q 33.9375 56 38.25 53.625 
Q 42.578125 51.265625 45.40625 46.390625 
z
M 14.796875 27.296875 
Q 14.796875 17.390625 18.875 11.75 
Q 22.953125 6.109375 30.078125 6.109375 
Q 37.203125 6.109375 41.296875 11.75 
Q 45.40625 17.390625 45.40625 27.296875 
Q 45.40625 37.203125 41.296875 42.84375 
Q 37.203125 48.484375 30.078125 48.484375 
Q 22.953125 48.484375 18.875 42.84375 
Q 14.796875 37.203125 14.796875 27.296875 
z
" id="DejaVuSans-64"/>
      </defs>
      <g transform="translate(60.409985 90.970313)scale(0.06 -0.06)">
       <use xlink:href="#DejaVuSans-67"/>
       <use x="63.476562" xlink:href="#DejaVuSans-72"/>
       <use x="104.558594" xlink:href="#DejaVuSans-6f"/>
       <use x="165.740234" xlink:href="#DejaVuSans-75"/>
       <use x="229.119141" xlink:href="#DejaVuSans-6e"/>
       <use x="292.498047" xlink:href="#DejaVuSans-64"/>
      </g>
     </g>
    </g>
    <g id="xtick_9">
     <g id="line2d_9"/>
     <g id="text_2">
      <!-- structure -->
      <defs>
       <path d="M 44.28125 53.078125 
L 44.28125 44.578125 
Q 40.484375 46.53125 36.375 47.5 
Q 32.28125 48.484375 27.875 48.484375 
Q 21.1875 48.484375 17.84375 46.4375 
Q 14.5 44.390625 14.5 40.28125 
Q 14.5 37.15625 16.890625 35.375 
Q 19.28125 33.59375 26.515625 31.984375 
L 29.59375 31.296875 
Q 39.15625 29.25 43.1875 25.515625 
Q 47.21875 21.78125 47.21875 15.09375 
Q 47.21875 7.46875 41.1875 3.015625 
Q 35.15625 -1.421875 24.609375 -1.421875 
Q 20.21875 -1.421875 15.453125 -0.5625 
Q 10.6875 0.296875 5.421875 2 
L 5.421875 11.28125 
Q 10.40625 8.6875 15.234375 7.390625 
Q 20.0625 6.109375 24.8125 6.109375 
Q 31.15625 6.109375 34.5625 8.28125 
Q 37.984375 10.453125 37.984375 14.40625 
Q 37.984375 18.0625 35.515625 20.015625 
Q 33.0625 21.96875 24.703125 23.78125 
L 21.578125 24.515625 
Q 13.234375 26.265625 9.515625 29.90625 
Q 5.8125 33.546875 5.8125 39.890625 
Q 5.8125 47.609375 11.28125 51.796875 
Q 16.75 56 26.8125 56 
Q 31.78125 56 36.171875 55.265625 
Q 40.578125 54.546875 44.28125 53.078125 
z
" id="DejaVuSans-73"/>
       <path d="M 18.3125 70.21875 
L 18.3125 54.6875 
L 36.8125 54.6875 
L 36.8125 47.703125 
L 18.3125 47.703125 
L 18.3125 18.015625 
Q 18.3125 11.328125 20.140625 9.421875 
Q 21.96875 7.515625 27.59375 7.515625 
L 36.8125 7.515625 
L 36.8125 0 
L 27.59375 0 
Q 17.1875 0 13.234375 3.875 
Q 9.28125 7.765625 9.28125 18.015625 
L 9.28125 47.703125 
L 2.6875 47.703125 
L 2.6875 54.6875 
L 9.28125 54.6875 
L 9.28125 70.21875 
z
" id="DejaVuSans-74"/>
       <path d="M 48.78125 52.59375 
L 48.78125 44.1875 
Q 44.96875 46.296875 41.140625 47.34375 
Q 37.3125 48.390625 33.40625 48.390625 
Q 24.65625 48.390625 19.8125 42.84375 
Q 14.984375 37.3125 14.984375 27.296875 
Q 14.984375 17.28125 19.8125 11.734375 
Q 24.65625 6.203125 33.40625 6.203125 
Q 37.3125 6.203125 41.140625 7.25 
Q 44.96875 8.296875 48.78125 10.40625 
L 48.78125 2.09375 
Q 45.015625 0.34375 40.984375 -0.53125 
Q 36.96875 -1.421875 32.421875 -1.421875 
Q 20.0625 -1.421875 12.78125 6.34375 
Q 5.515625 14.109375 5.515625 27.296875 
Q 5.515625 40.671875 12.859375 48.328125 
Q 20.21875 56 33.015625 56 
Q 37.15625 56 41.109375 55.140625 
Q 45.0625 54.296875 48.78125 52.59375 
z
" id="DejaVuSans-63"/>
       <path d="M 56.203125 29.59375 
L 56.203125 25.203125 
L 14.890625 25.203125 
Q 15.484375 15.921875 20.484375 11.0625 
Q 25.484375 6.203125 34.421875 6.203125 
Q 39.59375 6.203125 44.453125 7.46875 
Q 49.3125 8.734375 54.109375 11.28125 
L 54.109375 2.78125 
Q 49.265625 0.734375 44.1875 -0.34375 
Q 39.109375 -1.421875 33.890625 -1.421875 
Q 20.796875 -1.421875 13.15625 6.1875 
Q 5.515625 13.8125 5.515625 26.8125 
Q 5.515625 40.234375 12.765625 48.109375 
Q 20.015625 56 32.328125 56 
Q 43.359375 56 49.78125 48.890625 
Q 56.203125 41.796875 56.203125 29.59375 
z
M 47.21875 32.234375 
Q 47.125 39.59375 43.09375 43.984375 
Q 39.0625 48.390625 32.421875 48.390625 
Q 24.90625 48.390625 20.390625 44.140625 
Q 15.875 39.890625 15.1875 32.171875 
z
" id="DejaVuSans-65"/>
      </defs>
      <g transform="translate(120.643949 90.970313)scale(0.06 -0.06)">
       <use xlink:href="#DejaVuSans-73"/>
       <use x="52.099609" xlink:href="#DejaVuSans-74"/>
       <use x="91.308594" xlink:href="#DejaVuSans-72"/>
       <use x="132.421875" xlink:href="#DejaVuSans-75"/>
       <use x="195.800781" xlink:href="#DejaVuSans-63"/>
       <use x="250.78125" xlink:href="#DejaVuSans-74"/>
       <use x="289.990234" xlink:href="#DejaVuSans-75"/>
       <use x="353.369141" xlink:href="#DejaVuSans-72"/>
       <use x="394.451172" xlink:href="#DejaVuSans-65"/>
      </g>
     </g>
    </g>
    <g id="xtick_10">
     <g id="line2d_10"/>
     <g id="text_3">
      <!-- vehicle -->
      <defs>
       <path d="M 2.984375 54.6875 
L 12.5 54.6875 
L 29.59375 8.796875 
L 46.6875 54.6875 
L 56.203125 54.6875 
L 35.6875 0 
L 23.484375 0 
z
" id="DejaVuSans-76"/>
       <path d="M 54.890625 33.015625 
L 54.890625 0 
L 45.90625 0 
L 45.90625 32.71875 
Q 45.90625 40.484375 42.875 44.328125 
Q 39.84375 48.1875 33.796875 48.1875 
Q 26.515625 48.1875 22.3125 43.546875 
Q 18.109375 38.921875 18.109375 30.90625 
L 18.109375 0 
L 9.078125 0 
L 9.078125 75.984375 
L 18.109375 75.984375 
L 18.109375 46.1875 
Q 21.34375 51.125 25.703125 53.5625 
Q 30.078125 56 35.796875 56 
Q 45.21875 56 50.046875 50.171875 
Q 54.890625 44.34375 54.890625 33.015625 
z
" id="DejaVuSans-68"/>
       <path d="M 9.421875 54.6875 
L 18.40625 54.6875 
L 18.40625 0 
L 9.421875 0 
z
M 9.421875 75.984375 
L 18.40625 75.984375 
L 18.40625 64.59375 
L 9.421875 64.59375 
z
" id="DejaVuSans-69"/>
       <path d="M 9.421875 75.984375 
L 18.40625 75.984375 
L 18.40625 0 
L 9.421875 0 
z
" id="DejaVuSans-6c"/>
      </defs>
      <g transform="translate(194.774541 90.970313)scale(0.06 -0.06)">
       <use xlink:href="#DejaVuSans-76"/>
       <use x="59.179688" xlink:href="#DejaVuSans-65"/>
       <use x="120.703125" xlink:href="#DejaVuSans-68"/>
       <use x="184.082031" xlink:href="#DejaVuSans-69"/>
       <use x="211.865234" xlink:href="#DejaVuSans-63"/>
       <use x="266.845703" xlink:href="#DejaVuSans-6c"/>
       <use x="294.628906" xlink:href="#DejaVuSans-65"/>
      </g>
     </g>
    </g>
    <g id="xtick_11">
     <g id="line2d_11"/>
     <g id="text_4">
      <!-- nature -->
      <defs>
       <path d="M 34.28125 27.484375 
Q 23.390625 27.484375 19.1875 25 
Q 14.984375 22.515625 14.984375 16.5 
Q 14.984375 11.71875 18.140625 8.90625 
Q 21.296875 6.109375 26.703125 6.109375 
Q 34.1875 6.109375 38.703125 11.40625 
Q 43.21875 16.703125 43.21875 25.484375 
L 43.21875 27.484375 
z
M 52.203125 31.203125 
L 52.203125 0 
L 43.21875 0 
L 43.21875 8.296875 
Q 40.140625 3.328125 35.546875 0.953125 
Q 30.953125 -1.421875 24.3125 -1.421875 
Q 15.921875 -1.421875 10.953125 3.296875 
Q 6 8.015625 6 15.921875 
Q 6 25.140625 12.171875 29.828125 
Q 18.359375 34.515625 30.609375 34.515625 
L 43.21875 34.515625 
L 43.21875 35.40625 
Q 43.21875 41.609375 39.140625 45 
Q 35.0625 48.390625 27.6875 48.390625 
Q 23 48.390625 18.546875 47.265625 
Q 14.109375 46.140625 10.015625 43.890625 
L 10.015625 52.203125 
Q 14.9375 54.109375 19.578125 55.046875 
Q 24.21875 56 28.609375 56 
Q 40.484375 56 46.34375 49.84375 
Q 52.203125 43.703125 52.203125 31.203125 
z
" id="DejaVuSans-61"/>
      </defs>
      <g transform="translate(274.605667 90.970313)scale(0.06 -0.06)">
       <use xlink:href="#DejaVuSans-6e"/>
       <use x="63.378906" xlink:href="#DejaVuSans-61"/>
       <use x="124.658203" xlink:href="#DejaVuSans-74"/>
       <use x="163.867188" xlink:href="#DejaVuSans-75"/>
       <use x="227.246094" xlink:href="#DejaVuSans-72"/>
       <use x="268.328125" xlink:href="#DejaVuSans-65"/>
      </g>
     </g>
    </g>
    <g id="xtick_12">
     <g id="line2d_12"/>
     <g id="text_5">
      <!-- human -->
      <defs>
       <path d="M 52 44.1875 
Q 55.375 50.25 60.0625 53.125 
Q 64.75 56 71.09375 56 
Q 79.640625 56 84.28125 50.015625 
Q 88.921875 44.046875 88.921875 33.015625 
L 88.921875 0 
L 79.890625 0 
L 79.890625 32.71875 
Q 79.890625 40.578125 77.09375 44.375 
Q 74.3125 48.1875 68.609375 48.1875 
Q 61.625 48.1875 57.5625 43.546875 
Q 53.515625 38.921875 53.515625 30.90625 
L 53.515625 0 
L 44.484375 0 
L 44.484375 32.71875 
Q 44.484375 40.625 41.703125 44.40625 
Q 38.921875 48.1875 33.109375 48.1875 
Q 26.21875 48.1875 22.15625 43.53125 
Q 18.109375 38.875 18.109375 30.90625 
L 18.109375 0 
L 9.078125 0 
L 9.078125 54.6875 
L 18.109375 54.6875 
L 18.109375 46.1875 
Q 21.1875 51.21875 25.484375 53.609375 
Q 29.78125 56 35.6875 56 
Q 41.65625 56 45.828125 52.96875 
Q 50 49.953125 52 44.1875 
z
" id="DejaVuSans-6d"/>
      </defs>
      <g transform="translate(337.269631 90.970313)scale(0.06 -0.06)">
       <use xlink:href="#DejaVuSans-68"/>
       <use x="63.378906" xlink:href="#DejaVuSans-75"/>
       <use x="126.757812" xlink:href="#DejaVuSans-6d"/>
       <use x="224.169922" xlink:href="#DejaVuSans-61"/>
       <use x="285.449219" xlink:href="#DejaVuSans-6e"/>
      </g>
     </g>
    </g>
    <g id="xtick_13">
     <g id="line2d_13"/>
     <g id="text_6">
      <!-- object -->
      <defs>
       <path d="M 48.6875 27.296875 
Q 48.6875 37.203125 44.609375 42.84375 
Q 40.53125 48.484375 33.40625 48.484375 
Q 26.265625 48.484375 22.1875 42.84375 
Q 18.109375 37.203125 18.109375 27.296875 
Q 18.109375 17.390625 22.1875 11.75 
Q 26.265625 6.109375 33.40625 6.109375 
Q 40.53125 6.109375 44.609375 11.75 
Q 48.6875 17.390625 48.6875 27.296875 
z
M 18.109375 46.390625 
Q 20.953125 51.265625 25.265625 53.625 
Q 29.59375 56 35.59375 56 
Q 45.5625 56 51.78125 48.09375 
Q 58.015625 40.1875 58.015625 27.296875 
Q 58.015625 14.40625 51.78125 6.484375 
Q 45.5625 -1.421875 35.59375 -1.421875 
Q 29.59375 -1.421875 25.265625 0.953125 
Q 20.953125 3.328125 18.109375 8.203125 
L 18.109375 0 
L 9.078125 0 
L 9.078125 75.984375 
L 18.109375 75.984375 
z
" id="DejaVuSans-62"/>
       <path d="M 9.421875 54.6875 
L 18.40625 54.6875 
L 18.40625 -0.984375 
Q 18.40625 -11.421875 14.421875 -16.109375 
Q 10.453125 -20.796875 1.609375 -20.796875 
L -1.8125 -20.796875 
L -1.8125 -13.1875 
L 0.59375 -13.1875 
Q 5.71875 -13.1875 7.5625 -10.8125 
Q 9.421875 -8.453125 9.421875 -0.984375 
z
M 9.421875 75.984375 
L 18.40625 75.984375 
L 18.40625 64.59375 
L 9.421875 64.59375 
z
" id="DejaVuSans-6a"/>
      </defs>
      <g transform="translate(409.626004 90.970313)scale(0.06 -0.06)">
       <use xlink:href="#DejaVuSans-6f"/>
       <use x="61.181641" xlink:href="#DejaVuSans-62"/>
       <use x="124.658203" xlink:href="#DejaVuSans-6a"/>
       <use x="152.441406" xlink:href="#DejaVuSans-65"/>
       <use x="213.964844" xlink:href="#DejaVuSans-63"/>
       <use x="268.945312" xlink:href="#DejaVuSans-74"/>
      </g>
     </g>
    </g>
   </g>
   <g id="matplotlib.axis_2">
    <g id="ytick_1">
     <g id="line2d_14">
      <defs>
       <path d="M 0 0 
L -3.5 0 
" id="mf332201b5e" style="stroke:#000000;stroke-width:0.8;"/>
      </defs>
      <g>
       <use style="stroke:#000000;stroke-width:0.8;" x="35.520939" xlink:href="#mf332201b5e" y="81.775973"/>
      </g>
     </g>
     <g id="text_7">
      <!-- $\mathdefault{10^{5}}$ -->
      <defs>
       <path d="M 12.40625 8.296875 
L 28.515625 8.296875 
L 28.515625 63.921875 
L 10.984375 60.40625 
L 10.984375 69.390625 
L 28.421875 72.90625 
L 38.28125 72.90625 
L 38.28125 8.296875 
L 54.390625 8.296875 
L 54.390625 0 
L 12.40625 0 
z
" id="DejaVuSans-31"/>
       <path d="M 31.78125 66.40625 
Q 24.171875 66.40625 20.328125 58.90625 
Q 16.5 51.421875 16.5 36.375 
Q 16.5 21.390625 20.328125 13.890625 
Q 24.171875 6.390625 31.78125 6.390625 
Q 39.453125 6.390625 43.28125 13.890625 
Q 47.125 21.390625 47.125 36.375 
Q 47.125 51.421875 43.28125 58.90625 
Q 39.453125 66.40625 31.78125 66.40625 
z
M 31.78125 74.21875 
Q 44.046875 74.21875 50.515625 64.515625 
Q 56.984375 54.828125 56.984375 36.375 
Q 56.984375 17.96875 50.515625 8.265625 
Q 44.046875 -1.421875 31.78125 -1.421875 
Q 19.53125 -1.421875 13.0625 8.265625 
Q 6.59375 17.96875 6.59375 36.375 
Q 6.59375 54.828125 13.0625 64.515625 
Q 19.53125 74.21875 31.78125 74.21875 
z
" id="DejaVuSans-30"/>
       <path d="M 10.796875 72.90625 
L 49.515625 72.90625 
L 49.515625 64.59375 
L 19.828125 64.59375 
L 19.828125 46.734375 
Q 21.96875 47.46875 24.109375 47.828125 
Q 26.265625 48.1875 28.421875 48.1875 
Q 40.625 48.1875 47.75 41.5 
Q 54.890625 34.8125 54.890625 23.390625 
Q 54.890625 11.625 47.5625 5.09375 
Q 40.234375 -1.421875 26.90625 -1.421875 
Q 22.3125 -1.421875 17.546875 -0.640625 
Q 12.796875 0.140625 7.71875 1.703125 
L 7.71875 11.625 
Q 12.109375 9.234375 16.796875 8.0625 
Q 21.484375 6.890625 26.703125 6.890625 
Q 35.15625 6.890625 40.078125 11.328125 
Q 45.015625 15.765625 45.015625 23.390625 
Q 45.015625 31 40.078125 35.4375 
Q 35.15625 39.890625 26.703125 39.890625 
Q 22.75 39.890625 18.8125 39.015625 
Q 14.890625 38.140625 10.796875 36.28125 
z
" id="DejaVuSans-35"/>
      </defs>
      <g transform="translate(17.960939 84.055504)scale(0.06 -0.06)">
       <use transform="translate(0 0.684375)" xlink:href="#DejaVuSans-31"/>
       <use transform="translate(63.623047 0.684375)" xlink:href="#DejaVuSans-30"/>
       <use transform="translate(128.203125 38.965625)scale(0.7)" xlink:href="#DejaVuSans-35"/>
      </g>
     </g>
    </g>
    <g id="ytick_2">
     <g id="line2d_15">
      <g>
       <use style="stroke:#000000;stroke-width:0.8;" x="35.520939" xlink:href="#mf332201b5e" y="64.911631"/>
      </g>
     </g>
     <g id="text_8">
      <!-- $\mathdefault{10^{6}}$ -->
      <defs>
       <path d="M 33.015625 40.375 
Q 26.375 40.375 22.484375 35.828125 
Q 18.609375 31.296875 18.609375 23.390625 
Q 18.609375 15.53125 22.484375 10.953125 
Q 26.375 6.390625 33.015625 6.390625 
Q 39.65625 6.390625 43.53125 10.953125 
Q 47.40625 15.53125 47.40625 23.390625 
Q 47.40625 31.296875 43.53125 35.828125 
Q 39.65625 40.375 33.015625 40.375 
z
M 52.59375 71.296875 
L 52.59375 62.3125 
Q 48.875 64.0625 45.09375 64.984375 
Q 41.3125 65.921875 37.59375 65.921875 
Q 27.828125 65.921875 22.671875 59.328125 
Q 17.53125 52.734375 16.796875 39.40625 
Q 19.671875 43.65625 24.015625 45.921875 
Q 28.375 48.1875 33.59375 48.1875 
Q 44.578125 48.1875 50.953125 41.515625 
Q 57.328125 34.859375 57.328125 23.390625 
Q 57.328125 12.15625 50.6875 5.359375 
Q 44.046875 -1.421875 33.015625 -1.421875 
Q 20.359375 -1.421875 13.671875 8.265625 
Q 6.984375 17.96875 6.984375 36.375 
Q 6.984375 53.65625 15.1875 63.9375 
Q 23.390625 74.21875 37.203125 74.21875 
Q 40.921875 74.21875 44.703125 73.484375 
Q 48.484375 72.75 52.59375 71.296875 
z
" id="DejaVuSans-36"/>
      </defs>
      <g transform="translate(17.960939 67.191162)scale(0.06 -0.06)">
       <use transform="translate(0 0.765625)" xlink:href="#DejaVuSans-31"/>
       <use transform="translate(63.623047 0.765625)" xlink:href="#DejaVuSans-30"/>
       <use transform="translate(128.203125 39.046875)scale(0.7)" xlink:href="#DejaVuSans-36"/>
      </g>
     </g>
    </g>
    <g id="ytick_3">
     <g id="line2d_16">
      <g>
       <use style="stroke:#000000;stroke-width:0.8;" x="35.520939" xlink:href="#mf332201b5e" y="48.047289"/>
      </g>
     </g>
     <g id="text_9">
      <!-- $\mathdefault{10^{7}}$ -->
      <defs>
       <path d="M 8.203125 72.90625 
L 55.078125 72.90625 
L 55.078125 68.703125 
L 28.609375 0 
L 18.3125 0 
L 43.21875 64.59375 
L 8.203125 64.59375 
z
" id="DejaVuSans-37"/>
      </defs>
      <g transform="translate(17.960939 50.32682)scale(0.06 -0.06)">
       <use transform="translate(0 0.684375)" xlink:href="#DejaVuSans-31"/>
       <use transform="translate(63.623047 0.684375)" xlink:href="#DejaVuSans-30"/>
       <use transform="translate(128.203125 38.965625)scale(0.7)" xlink:href="#DejaVuSans-37"/>
      </g>
     </g>
    </g>
    <g id="ytick_4">
     <g id="line2d_17">
      <g>
       <use style="stroke:#000000;stroke-width:0.8;" x="35.520939" xlink:href="#mf332201b5e" y="31.182947"/>
      </g>
     </g>
     <g id="text_10">
      <!-- $\mathdefault{10^{8}}$ -->
      <defs>
       <path d="M 31.78125 34.625 
Q 24.75 34.625 20.71875 30.859375 
Q 16.703125 27.09375 16.703125 20.515625 
Q 16.703125 13.921875 20.71875 10.15625 
Q 24.75 6.390625 31.78125 6.390625 
Q 38.8125 6.390625 42.859375 10.171875 
Q 46.921875 13.96875 46.921875 20.515625 
Q 46.921875 27.09375 42.890625 30.859375 
Q 38.875 34.625 31.78125 34.625 
z
M 21.921875 38.8125 
Q 15.578125 40.375 12.03125 44.71875 
Q 8.5 49.078125 8.5 55.328125 
Q 8.5 64.0625 14.71875 69.140625 
Q 20.953125 74.21875 31.78125 74.21875 
Q 42.671875 74.21875 48.875 69.140625 
Q 55.078125 64.0625 55.078125 55.328125 
Q 55.078125 49.078125 51.53125 44.71875 
Q 48 40.375 41.703125 38.8125 
Q 48.828125 37.15625 52.796875 32.3125 
Q 56.78125 27.484375 56.78125 20.515625 
Q 56.78125 9.90625 50.3125 4.234375 
Q 43.84375 -1.421875 31.78125 -1.421875 
Q 19.734375 -1.421875 13.25 4.234375 
Q 6.78125 9.90625 6.78125 20.515625 
Q 6.78125 27.484375 10.78125 32.3125 
Q 14.796875 37.15625 21.921875 38.8125 
z
M 18.3125 54.390625 
Q 18.3125 48.734375 21.84375 45.5625 
Q 25.390625 42.390625 31.78125 42.390625 
Q 38.140625 42.390625 41.71875 45.5625 
Q 45.3125 48.734375 45.3125 54.390625 
Q 45.3125 60.0625 41.71875 63.234375 
Q 38.140625 66.40625 31.78125 66.40625 
Q 25.390625 66.40625 21.84375 63.234375 
Q 18.3125 60.0625 18.3125 54.390625 
z
" id="DejaVuSans-38"/>
      </defs>
      <g transform="translate(17.960939 33.462478)scale(0.06 -0.06)">
       <use transform="translate(0 0.765625)" xlink:href="#DejaVuSans-31"/>
       <use transform="translate(63.623047 0.765625)" xlink:href="#DejaVuSans-30"/>
       <use transform="translate(128.203125 39.046875)scale(0.7)" xlink:href="#DejaVuSans-38"/>
      </g>
     </g>
    </g>
    <g id="ytick_5">
     <g id="line2d_18">
      <g>
       <use style="stroke:#000000;stroke-width:0.8;" x="35.520939" xlink:href="#mf332201b5e" y="14.318605"/>
      </g>
     </g>
     <g id="text_11">
      <!-- $\mathdefault{10^{9}}$ -->
      <defs>
       <path d="M 10.984375 1.515625 
L 10.984375 10.5 
Q 14.703125 8.734375 18.5 7.8125 
Q 22.3125 6.890625 25.984375 6.890625 
Q 35.75 6.890625 40.890625 13.453125 
Q 46.046875 20.015625 46.78125 33.40625 
Q 43.953125 29.203125 39.59375 26.953125 
Q 35.25 24.703125 29.984375 24.703125 
Q 19.046875 24.703125 12.671875 31.3125 
Q 6.296875 37.9375 6.296875 49.421875 
Q 6.296875 60.640625 12.9375 67.421875 
Q 19.578125 74.21875 30.609375 74.21875 
Q 43.265625 74.21875 49.921875 64.515625 
Q 56.59375 54.828125 56.59375 36.375 
Q 56.59375 19.140625 48.40625 8.859375 
Q 40.234375 -1.421875 26.421875 -1.421875 
Q 22.703125 -1.421875 18.890625 -0.6875 
Q 15.09375 0.046875 10.984375 1.515625 
z
M 30.609375 32.421875 
Q 37.25 32.421875 41.125 36.953125 
Q 45.015625 41.5 45.015625 49.421875 
Q 45.015625 57.28125 41.125 61.84375 
Q 37.25 66.40625 30.609375 66.40625 
Q 23.96875 66.40625 20.09375 61.84375 
Q 16.21875 57.28125 16.21875 49.421875 
Q 16.21875 41.5 20.09375 36.953125 
Q 23.96875 32.421875 30.609375 32.421875 
z
" id="DejaVuSans-39"/>
      </defs>
      <g transform="translate(17.960939 16.598136)scale(0.06 -0.06)">
       <use transform="translate(0 0.765625)" xlink:href="#DejaVuSans-31"/>
       <use transform="translate(63.623047 0.765625)" xlink:href="#DejaVuSans-30"/>
       <use transform="translate(128.203125 39.046875)scale(0.7)" xlink:href="#DejaVuSans-39"/>
      </g>
     </g>
    </g>
    <g id="ytick_6">
     <g id="line2d_19">
      <defs>
       <path d="M 0 0 
L -2 0 
" id="m351942eee4" style="stroke:#000000;stroke-width:0.6;"/>
      </defs>
      <g>
       <use style="stroke:#000000;stroke-width:0.6;" x="35.520939" xlink:href="#m351942eee4" y="83.410296"/>
      </g>
     </g>
    </g>
    <g id="ytick_7">
     <g id="line2d_20">
      <g>
       <use style="stroke:#000000;stroke-width:0.6;" x="35.520939" xlink:href="#m351942eee4" y="82.547643"/>
      </g>
     </g>
    </g>
    <g id="ytick_8">
     <g id="line2d_21">
      <g>
       <use style="stroke:#000000;stroke-width:0.6;" x="35.520939" xlink:href="#m351942eee4" y="76.6993"/>
      </g>
     </g>
    </g>
    <g id="ytick_9">
     <g id="line2d_22">
      <g>
       <use style="stroke:#000000;stroke-width:0.6;" x="35.520939" xlink:href="#m351942eee4" y="73.729637"/>
      </g>
     </g>
    </g>
    <g id="ytick_10">
     <g id="line2d_23">
      <g>
       <use style="stroke:#000000;stroke-width:0.6;" x="35.520939" xlink:href="#m351942eee4" y="71.622627"/>
      </g>
     </g>
    </g>
    <g id="ytick_11">
     <g id="line2d_24">
      <g>
       <use style="stroke:#000000;stroke-width:0.6;" x="35.520939" xlink:href="#m351942eee4" y="69.988304"/>
      </g>
     </g>
    </g>
    <g id="ytick_12">
     <g id="line2d_25">
      <g>
       <use style="stroke:#000000;stroke-width:0.6;" x="35.520939" xlink:href="#m351942eee4" y="68.652964"/>
      </g>
     </g>
    </g>
    <g id="ytick_13">
     <g id="line2d_26">
      <g>
       <use style="stroke:#000000;stroke-width:0.6;" x="35.520939" xlink:href="#m351942eee4" y="67.52395"/>
      </g>
     </g>
    </g>
    <g id="ytick_14">
     <g id="line2d_27">
      <g>
       <use style="stroke:#000000;stroke-width:0.6;" x="35.520939" xlink:href="#m351942eee4" y="66.545954"/>
      </g>
     </g>
    </g>
    <g id="ytick_15">
     <g id="line2d_28">
      <g>
       <use style="stroke:#000000;stroke-width:0.6;" x="35.520939" xlink:href="#m351942eee4" y="65.683301"/>
      </g>
     </g>
    </g>
    <g id="ytick_16">
     <g id="line2d_29">
      <g>
       <use style="stroke:#000000;stroke-width:0.6;" x="35.520939" xlink:href="#m351942eee4" y="59.834958"/>
      </g>
     </g>
    </g>
    <g id="ytick_17">
     <g id="line2d_30">
      <g>
       <use style="stroke:#000000;stroke-width:0.6;" x="35.520939" xlink:href="#m351942eee4" y="56.865295"/>
      </g>
     </g>
    </g>
    <g id="ytick_18">
     <g id="line2d_31">
      <g>
       <use style="stroke:#000000;stroke-width:0.6;" x="35.520939" xlink:href="#m351942eee4" y="54.758285"/>
      </g>
     </g>
    </g>
    <g id="ytick_19">
     <g id="line2d_32">
      <g>
       <use style="stroke:#000000;stroke-width:0.6;" x="35.520939" xlink:href="#m351942eee4" y="53.123961"/>
      </g>
     </g>
    </g>
    <g id="ytick_20">
     <g id="line2d_33">
      <g>
       <use style="stroke:#000000;stroke-width:0.6;" x="35.520939" xlink:href="#m351942eee4" y="51.788622"/>
      </g>
     </g>
    </g>
    <g id="ytick_21">
     <g id="line2d_34">
      <g>
       <use style="stroke:#000000;stroke-width:0.6;" x="35.520939" xlink:href="#m351942eee4" y="50.659608"/>
      </g>
     </g>
    </g>
    <g id="ytick_22">
     <g id="line2d_35">
      <g>
       <use style="stroke:#000000;stroke-width:0.6;" x="35.520939" xlink:href="#m351942eee4" y="49.681612"/>
      </g>
     </g>
    </g>
    <g id="ytick_23">
     <g id="line2d_36">
      <g>
       <use style="stroke:#000000;stroke-width:0.6;" x="35.520939" xlink:href="#m351942eee4" y="48.818959"/>
      </g>
     </g>
    </g>
    <g id="ytick_24">
     <g id="line2d_37">
      <g>
       <use style="stroke:#000000;stroke-width:0.6;" x="35.520939" xlink:href="#m351942eee4" y="42.970616"/>
      </g>
     </g>
    </g>
    <g id="ytick_25">
     <g id="line2d_38">
      <g>
       <use style="stroke:#000000;stroke-width:0.6;" x="35.520939" xlink:href="#m351942eee4" y="40.000953"/>
      </g>
     </g>
    </g>
    <g id="ytick_26">
     <g id="line2d_39">
      <g>
       <use style="stroke:#000000;stroke-width:0.6;" x="35.520939" xlink:href="#m351942eee4" y="37.893943"/>
      </g>
     </g>
    </g>
    <g id="ytick_27">
     <g id="line2d_40">
      <g>
       <use style="stroke:#000000;stroke-width:0.6;" x="35.520939" xlink:href="#m351942eee4" y="36.259619"/>
      </g>
     </g>
    </g>
    <g id="ytick_28">
     <g id="line2d_41">
      <g>
       <use style="stroke:#000000;stroke-width:0.6;" x="35.520939" xlink:href="#m351942eee4" y="34.92428"/>
      </g>
     </g>
    </g>
    <g id="ytick_29">
     <g id="line2d_42">
      <g>
       <use style="stroke:#000000;stroke-width:0.6;" x="35.520939" xlink:href="#m351942eee4" y="33.795266"/>
      </g>
     </g>
    </g>
    <g id="ytick_30">
     <g id="line2d_43">
      <g>
       <use style="stroke:#000000;stroke-width:0.6;" x="35.520939" xlink:href="#m351942eee4" y="32.81727"/>
      </g>
     </g>
    </g>
    <g id="ytick_31">
     <g id="line2d_44">
      <g>
       <use style="stroke:#000000;stroke-width:0.6;" x="35.520939" xlink:href="#m351942eee4" y="31.954617"/>
      </g>
     </g>
    </g>
    <g id="ytick_32">
     <g id="line2d_45">
      <g>
       <use style="stroke:#000000;stroke-width:0.6;" x="35.520939" xlink:href="#m351942eee4" y="26.106274"/>
      </g>
     </g>
    </g>
    <g id="ytick_33">
     <g id="line2d_46">
      <g>
       <use style="stroke:#000000;stroke-width:0.6;" x="35.520939" xlink:href="#m351942eee4" y="23.136611"/>
      </g>
     </g>
    </g>
    <g id="ytick_34">
     <g id="line2d_47">
      <g>
       <use style="stroke:#000000;stroke-width:0.6;" x="35.520939" xlink:href="#m351942eee4" y="21.029601"/>
      </g>
     </g>
    </g>
    <g id="ytick_35">
     <g id="line2d_48">
      <g>
       <use style="stroke:#000000;stroke-width:0.6;" x="35.520939" xlink:href="#m351942eee4" y="19.395277"/>
      </g>
     </g>
    </g>
    <g id="ytick_36">
     <g id="line2d_49">
      <g>
       <use style="stroke:#000000;stroke-width:0.6;" x="35.520939" xlink:href="#m351942eee4" y="18.059938"/>
      </g>
     </g>
    </g>
    <g id="ytick_37">
     <g id="line2d_50">
      <g>
       <use style="stroke:#000000;stroke-width:0.6;" x="35.520939" xlink:href="#m351942eee4" y="16.930924"/>
      </g>
     </g>
    </g>
    <g id="ytick_38">
     <g id="line2d_51">
      <g>
       <use style="stroke:#000000;stroke-width:0.6;" x="35.520939" xlink:href="#m351942eee4" y="15.952928"/>
      </g>
     </g>
    </g>
    <g id="ytick_39">
     <g id="line2d_52">
      <g>
       <use style="stroke:#000000;stroke-width:0.6;" x="35.520939" xlink:href="#m351942eee4" y="15.090275"/>
      </g>
     </g>
    </g>
    <g id="ytick_40">
     <g id="line2d_53">
      <g>
       <use style="stroke:#000000;stroke-width:0.6;" x="35.520939" xlink:href="#m351942eee4" y="9.241932"/>
      </g>
     </g>
    </g>
    <g id="text_12">
     <!-- number of points -->
     <defs>
      <path id="DejaVuSans-20"/>
      <path d="M 37.109375 75.984375 
L 37.109375 68.5 
L 28.515625 68.5 
Q 23.6875 68.5 21.796875 66.546875 
Q 19.921875 64.59375 19.921875 59.515625 
L 19.921875 54.6875 
L 34.71875 54.6875 
L 34.71875 47.703125 
L 19.921875 47.703125 
L 19.921875 0 
L 10.890625 0 
L 10.890625 47.703125 
L 2.296875 47.703125 
L 2.296875 54.6875 
L 10.890625 54.6875 
L 10.890625 58.5 
Q 10.890625 67.625 15.140625 71.796875 
Q 19.390625 75.984375 28.609375 75.984375 
z
" id="DejaVuSans-66"/>
      <path d="M 18.109375 8.203125 
L 18.109375 -20.796875 
L 9.078125 -20.796875 
L 9.078125 54.6875 
L 18.109375 54.6875 
L 18.109375 46.390625 
Q 20.953125 51.265625 25.265625 53.625 
Q 29.59375 56 35.59375 56 
Q 45.5625 56 51.78125 48.09375 
Q 58.015625 40.1875 58.015625 27.296875 
Q 58.015625 14.40625 51.78125 6.484375 
Q 45.5625 -1.421875 35.59375 -1.421875 
Q 29.59375 -1.421875 25.265625 0.953125 
Q 20.953125 3.328125 18.109375 8.203125 
z
M 48.6875 27.296875 
Q 48.6875 37.203125 44.609375 42.84375 
Q 40.53125 48.484375 33.40625 48.484375 
Q 26.265625 48.484375 22.1875 42.84375 
Q 18.109375 37.203125 18.109375 27.296875 
Q 18.109375 17.390625 22.1875 11.75 
Q 26.265625 6.109375 33.40625 6.109375 
Q 40.53125 6.109375 44.609375 11.75 
Q 48.6875 17.390625 48.6875 27.296875 
z
" id="DejaVuSans-70"/>
     </defs>
     <g transform="translate(12.713127 71.726406)rotate(-90)scale(0.06 -0.06)">
      <use xlink:href="#DejaVuSans-6e"/>
      <use x="63.378906" xlink:href="#DejaVuSans-75"/>
      <use x="126.757812" xlink:href="#DejaVuSans-6d"/>
      <use x="224.169922" xlink:href="#DejaVuSans-62"/>
      <use x="287.646484" xlink:href="#DejaVuSans-65"/>
      <use x="349.169922" xlink:href="#DejaVuSans-72"/>
      <use x="390.283203" xlink:href="#DejaVuSans-20"/>
      <use x="422.070312" xlink:href="#DejaVuSans-6f"/>
      <use x="483.251953" xlink:href="#DejaVuSans-66"/>
      <use x="518.457031" xlink:href="#DejaVuSans-20"/>
      <use x="550.244141" xlink:href="#DejaVuSans-70"/>
      <use x="613.720703" xlink:href="#DejaVuSans-6f"/>
      <use x="674.902344" xlink:href="#DejaVuSans-69"/>
      <use x="702.685547" xlink:href="#DejaVuSans-6e"/>
      <use x="766.064453" xlink:href="#DejaVuSans-74"/>
      <use x="805.273438" xlink:href="#DejaVuSans-73"/>
     </g>
    </g>
   </g>
   <g id="patch_87">
    <path d="M 35.520939 83.01125 
L 35.520939 9 
" style="fill:none;stroke:#000000;stroke-linecap:square;stroke-linejoin:miter;stroke-width:0.8;"/>
   </g>
   <g id="patch_88">
    <path d="M 486.05625 83.01125 
L 486.05625 9 
" style="fill:none;stroke:#000000;stroke-linecap:square;stroke-linejoin:miter;stroke-width:0.8;"/>
   </g>
   <g id="patch_89">
    <path d="M 35.520939 83.01125 
L 486.05625 83.01125 
" style="fill:none;stroke:#000000;stroke-linecap:square;stroke-linejoin:miter;stroke-width:0.8;"/>
   </g>
   <g id="patch_90">
    <path d="M 35.520939 9 
L 486.05625 9 
" style="fill:none;stroke:#000000;stroke-linecap:square;stroke-linejoin:miter;stroke-width:0.8;"/>
   </g>
   <g id="text_13">
    <!-- road -->
    <g style="fill:#ffffff;" transform="translate(49.032757 76.154942)rotate(-90)scale(0.06 -0.06)">
     <use xlink:href="#DejaVuSans-72"/>
     <use x="41.082031" xlink:href="#DejaVuSans-6f"/>
     <use x="102.263672" xlink:href="#DejaVuSans-61"/>
     <use x="163.542969" xlink:href="#DejaVuSans-64"/>
    </g>
   </g>
   <g id="text_14">
    <!-- sidewalk -->
    <defs>
     <path d="M 4.203125 54.6875 
L 13.1875 54.6875 
L 24.421875 12.015625 
L 35.59375 54.6875 
L 46.1875 54.6875 
L 57.421875 12.015625 
L 68.609375 54.6875 
L 77.59375 54.6875 
L 63.28125 0 
L 52.6875 0 
L 40.921875 44.828125 
L 29.109375 0 
L 18.5 0 
z
" id="DejaVuSans-77"/>
     <path d="M 9.078125 75.984375 
L 18.109375 75.984375 
L 18.109375 31.109375 
L 44.921875 54.6875 
L 56.390625 54.6875 
L 27.390625 29.109375 
L 57.625 0 
L 45.90625 0 
L 18.109375 26.703125 
L 18.109375 0 
L 9.078125 0 
z
" id="DejaVuSans-6b"/>
    </defs>
    <g style="fill:#ffffff;" transform="translate(64.841013 76.154942)rotate(-90)scale(0.06 -0.06)">
     <use xlink:href="#DejaVuSans-73"/>
     <use x="52.099609" xlink:href="#DejaVuSans-69"/>
     <use x="79.882812" xlink:href="#DejaVuSans-64"/>
     <use x="143.359375" xlink:href="#DejaVuSans-65"/>
     <use x="204.882812" xlink:href="#DejaVuSans-77"/>
     <use x="286.669922" xlink:href="#DejaVuSans-61"/>
     <use x="347.949219" xlink:href="#DejaVuSans-6c"/>
     <use x="375.732422" xlink:href="#DejaVuSans-6b"/>
    </g>
   </g>
   <g id="text_15">
    <!-- parking -->
    <g transform="translate(80.64927 76.154942)rotate(-90)scale(0.06 -0.06)">
     <use xlink:href="#DejaVuSans-70"/>
     <use x="63.476562" xlink:href="#DejaVuSans-61"/>
     <use x="124.755859" xlink:href="#DejaVuSans-72"/>
     <use x="165.869141" xlink:href="#DejaVuSans-6b"/>
     <use x="223.779297" xlink:href="#DejaVuSans-69"/>
     <use x="251.5625" xlink:href="#DejaVuSans-6e"/>
     <use x="314.941406" xlink:href="#DejaVuSans-67"/>
    </g>
   </g>
   <g id="text_16">
    <!-- other-ground -->
    <defs>
     <path d="M 4.890625 31.390625 
L 31.203125 31.390625 
L 31.203125 23.390625 
L 4.890625 23.390625 
z
" id="DejaVuSans-2d"/>
    </defs>
    <g transform="translate(96.457526 76.154942)rotate(-90)scale(0.06 -0.06)">
     <use xlink:href="#DejaVuSans-6f"/>
     <use x="61.181641" xlink:href="#DejaVuSans-74"/>
     <use x="100.390625" xlink:href="#DejaVuSans-68"/>
     <use x="163.769531" xlink:href="#DejaVuSans-65"/>
     <use x="225.292969" xlink:href="#DejaVuSans-72"/>
     <use x="266.3125" xlink:href="#DejaVuSans-2d"/>
     <use x="302.396484" xlink:href="#DejaVuSans-67"/>
     <use x="365.873047" xlink:href="#DejaVuSans-72"/>
     <use x="406.955078" xlink:href="#DejaVuSans-6f"/>
     <use x="468.136719" xlink:href="#DejaVuSans-75"/>
     <use x="531.515625" xlink:href="#DejaVuSans-6e"/>
     <use x="594.894531" xlink:href="#DejaVuSans-64"/>
    </g>
   </g>
   <g id="text_17">
    <!-- building -->
    <g style="fill:#ffffff;" transform="translate(128.074039 76.154942)rotate(-90)scale(0.06 -0.06)">
     <use xlink:href="#DejaVuSans-62"/>
     <use x="63.476562" xlink:href="#DejaVuSans-75"/>
     <use x="126.855469" xlink:href="#DejaVuSans-69"/>
     <use x="154.638672" xlink:href="#DejaVuSans-6c"/>
     <use x="182.421875" xlink:href="#DejaVuSans-64"/>
     <use x="245.898438" xlink:href="#DejaVuSans-69"/>
     <use x="273.681641" xlink:href="#DejaVuSans-6e"/>
     <use x="337.060547" xlink:href="#DejaVuSans-67"/>
    </g>
   </g>
   <g id="text_18">
    <!-- other-structure $^1$ -->
    <g transform="translate(143.882296 76.154942)rotate(-90)scale(0.06 -0.06)">
     <use transform="translate(0 0.684375)" xlink:href="#DejaVuSans-6f"/>
     <use transform="translate(61.181641 0.684375)" xlink:href="#DejaVuSans-74"/>
     <use transform="translate(100.390625 0.684375)" xlink:href="#DejaVuSans-68"/>
     <use transform="translate(163.769531 0.684375)" xlink:href="#DejaVuSans-65"/>
     <use transform="translate(225.292969 0.684375)" xlink:href="#DejaVuSans-72"/>
     <use transform="translate(266.40625 0.684375)" xlink:href="#DejaVuSans-2d"/>
     <use transform="translate(302.490234 0.684375)" xlink:href="#DejaVuSans-73"/>
     <use transform="translate(354.589844 0.684375)" xlink:href="#DejaVuSans-74"/>
     <use transform="translate(393.798828 0.684375)" xlink:href="#DejaVuSans-72"/>
     <use transform="translate(434.912109 0.684375)" xlink:href="#DejaVuSans-75"/>
     <use transform="translate(498.291016 0.684375)" xlink:href="#DejaVuSans-63"/>
     <use transform="translate(553.271484 0.684375)" xlink:href="#DejaVuSans-74"/>
     <use transform="translate(592.480469 0.684375)" xlink:href="#DejaVuSans-75"/>
     <use transform="translate(655.859375 0.684375)" xlink:href="#DejaVuSans-72"/>
     <use transform="translate(696.972656 0.684375)" xlink:href="#DejaVuSans-65"/>
     <use transform="translate(758.496094 0.684375)" xlink:href="#DejaVuSans-20"/>
     <use transform="translate(791.240234 38.965625)scale(0.7)" xlink:href="#DejaVuSans-31"/>
    </g>
   </g>
   <g id="text_19">
    <g id="patch_91">
     <path d="M 180.766621 80.174942 
L 180.766621 62.692442 
L 166.919746 62.692442 
L 166.919746 80.174942 
z
" style="fill:#ffffff;opacity:0.5;"/>
    </g>
    <!-- car -->
    <g transform="translate(175.498809 76.154942)rotate(-90)scale(0.06 -0.06)">
     <use xlink:href="#DejaVuSans-63"/>
     <use x="54.980469" xlink:href="#DejaVuSans-61"/>
     <use x="116.259766" xlink:href="#DejaVuSans-72"/>
    </g>
   </g>
   <g id="text_20">
    <g id="patch_92">
     <path d="M 196.574878 80.174942 
L 196.574878 56.740255 
L 182.728003 56.740255 
L 182.728003 80.174942 
z
" style="fill:#ffffff;opacity:0.5;"/>
    </g>
    <!-- truck -->
    <g transform="translate(191.307065 76.154942)rotate(-90)scale(0.06 -0.06)">
     <use xlink:href="#DejaVuSans-74"/>
     <use x="39.208984" xlink:href="#DejaVuSans-72"/>
     <use x="80.322266" xlink:href="#DejaVuSans-75"/>
     <use x="143.701172" xlink:href="#DejaVuSans-63"/>
     <use x="198.681641" xlink:href="#DejaVuSans-6b"/>
    </g>
   </g>
   <g id="text_21">
    <!-- bicycle -->
    <defs>
     <path d="M 32.171875 -5.078125 
Q 28.375 -14.84375 24.75 -17.8125 
Q 21.140625 -20.796875 15.09375 -20.796875 
L 7.90625 -20.796875 
L 7.90625 -13.28125 
L 13.1875 -13.28125 
Q 16.890625 -13.28125 18.9375 -11.515625 
Q 21 -9.765625 23.484375 -3.21875 
L 25.09375 0.875 
L 2.984375 54.6875 
L 12.5 54.6875 
L 29.59375 11.921875 
L 46.6875 54.6875 
L 56.203125 54.6875 
z
" id="DejaVuSans-79"/>
    </defs>
    <g transform="translate(207.115322 76.154942)rotate(-90)scale(0.06 -0.06)">
     <use xlink:href="#DejaVuSans-62"/>
     <use x="63.476562" xlink:href="#DejaVuSans-69"/>
     <use x="91.259766" xlink:href="#DejaVuSans-63"/>
     <use x="146.240234" xlink:href="#DejaVuSans-79"/>
     <use x="205.419922" xlink:href="#DejaVuSans-63"/>
     <use x="260.400391" xlink:href="#DejaVuSans-6c"/>
     <use x="288.183594" xlink:href="#DejaVuSans-65"/>
    </g>
   </g>
   <g id="text_22">
    <!-- motorcycle -->
    <g transform="translate(222.923578 76.154942)rotate(-90)scale(0.06 -0.06)">
     <use xlink:href="#DejaVuSans-6d"/>
     <use x="97.412109" xlink:href="#DejaVuSans-6f"/>
     <use x="158.59375" xlink:href="#DejaVuSans-74"/>
     <use x="197.802734" xlink:href="#DejaVuSans-6f"/>
     <use x="258.984375" xlink:href="#DejaVuSans-72"/>
     <use x="300.066406" xlink:href="#DejaVuSans-63"/>
     <use x="355.046875" xlink:href="#DejaVuSans-79"/>
     <use x="414.226562" xlink:href="#DejaVuSans-63"/>
     <use x="469.207031" xlink:href="#DejaVuSans-6c"/>
     <use x="496.990234" xlink:href="#DejaVuSans-65"/>
    </g>
   </g>
   <g id="text_23">
    <!-- other-vehicle -->
    <g transform="translate(238.731835 76.154942)rotate(-90)scale(0.06 -0.06)">
     <use xlink:href="#DejaVuSans-6f"/>
     <use x="61.181641" xlink:href="#DejaVuSans-74"/>
     <use x="100.390625" xlink:href="#DejaVuSans-68"/>
     <use x="163.769531" xlink:href="#DejaVuSans-65"/>
     <use x="225.292969" xlink:href="#DejaVuSans-72"/>
     <use x="266.3125" xlink:href="#DejaVuSans-2d"/>
     <use x="302.365234" xlink:href="#DejaVuSans-76"/>
     <use x="361.544922" xlink:href="#DejaVuSans-65"/>
     <use x="423.068359" xlink:href="#DejaVuSans-68"/>
     <use x="486.447266" xlink:href="#DejaVuSans-69"/>
     <use x="514.230469" xlink:href="#DejaVuSans-63"/>
     <use x="569.210938" xlink:href="#DejaVuSans-6c"/>
     <use x="596.994141" xlink:href="#DejaVuSans-65"/>
    </g>
   </g>
   <g id="text_24">
    <!-- vegetation -->
    <g style="fill:#ffffff;" transform="translate(270.348348 76.154942)rotate(-90)scale(0.06 -0.06)">
     <use xlink:href="#DejaVuSans-76"/>
     <use x="59.179688" xlink:href="#DejaVuSans-65"/>
     <use x="120.703125" xlink:href="#DejaVuSans-67"/>
     <use x="184.179688" xlink:href="#DejaVuSans-65"/>
     <use x="245.703125" xlink:href="#DejaVuSans-74"/>
     <use x="284.912109" xlink:href="#DejaVuSans-61"/>
     <use x="346.191406" xlink:href="#DejaVuSans-74"/>
     <use x="385.400391" xlink:href="#DejaVuSans-69"/>
     <use x="413.183594" xlink:href="#DejaVuSans-6f"/>
     <use x="474.365234" xlink:href="#DejaVuSans-6e"/>
    </g>
   </g>
   <g id="text_25">
    <!-- trunk -->
    <g style="fill:#ffffff;" transform="translate(286.156604 76.154942)rotate(-90)scale(0.06 -0.06)">
     <use xlink:href="#DejaVuSans-74"/>
     <use x="39.208984" xlink:href="#DejaVuSans-72"/>
     <use x="80.322266" xlink:href="#DejaVuSans-75"/>
     <use x="143.701172" xlink:href="#DejaVuSans-6e"/>
     <use x="207.080078" xlink:href="#DejaVuSans-6b"/>
    </g>
   </g>
   <g id="text_26">
    <!-- terrain -->
    <g transform="translate(301.964861 76.154942)rotate(-90)scale(0.06 -0.06)">
     <use xlink:href="#DejaVuSans-74"/>
     <use x="39.208984" xlink:href="#DejaVuSans-65"/>
     <use x="100.732422" xlink:href="#DejaVuSans-72"/>
     <use x="141.830078" xlink:href="#DejaVuSans-72"/>
     <use x="182.943359" xlink:href="#DejaVuSans-61"/>
     <use x="244.222656" xlink:href="#DejaVuSans-69"/>
     <use x="272.005859" xlink:href="#DejaVuSans-6e"/>
    </g>
   </g>
   <g id="text_27">
    <g id="patch_93">
     <path d="M 338.849187 80.174942 
L 338.849187 51.568067 
L 325.002312 51.568067 
L 325.002312 80.174942 
z
" style="fill:#ffffff;opacity:0.5;"/>
    </g>
    <!-- person -->
    <g transform="translate(333.581374 76.154942)rotate(-90)scale(0.06 -0.06)">
     <use xlink:href="#DejaVuSans-70"/>
     <use x="63.476562" xlink:href="#DejaVuSans-65"/>
     <use x="125" xlink:href="#DejaVuSans-72"/>
     <use x="166.113281" xlink:href="#DejaVuSans-73"/>
     <use x="218.212891" xlink:href="#DejaVuSans-6f"/>
     <use x="279.394531" xlink:href="#DejaVuSans-6e"/>
    </g>
   </g>
   <g id="text_28">
    <g id="patch_94">
     <path d="M 354.657443 80.174942 
L 354.657443 47.698067 
L 340.810568 47.698067 
L 340.810568 80.174942 
z
" style="fill:#ffffff;opacity:0.5;"/>
    </g>
    <!-- bicyclist -->
    <g transform="translate(349.389631 76.154942)rotate(-90)scale(0.06 -0.06)">
     <use xlink:href="#DejaVuSans-62"/>
     <use x="63.476562" xlink:href="#DejaVuSans-69"/>
     <use x="91.259766" xlink:href="#DejaVuSans-63"/>
     <use x="146.240234" xlink:href="#DejaVuSans-79"/>
     <use x="205.419922" xlink:href="#DejaVuSans-63"/>
     <use x="260.400391" xlink:href="#DejaVuSans-6c"/>
     <use x="288.183594" xlink:href="#DejaVuSans-69"/>
     <use x="315.966797" xlink:href="#DejaVuSans-73"/>
     <use x="368.066406" xlink:href="#DejaVuSans-74"/>
    </g>
   </g>
   <g id="text_29">
    <!-- motorcyclist -->
    <g transform="translate(365.197887 76.154942)rotate(-90)scale(0.06 -0.06)">
     <use xlink:href="#DejaVuSans-6d"/>
     <use x="97.412109" xlink:href="#DejaVuSans-6f"/>
     <use x="158.59375" xlink:href="#DejaVuSans-74"/>
     <use x="197.802734" xlink:href="#DejaVuSans-6f"/>
     <use x="258.984375" xlink:href="#DejaVuSans-72"/>
     <use x="300.066406" xlink:href="#DejaVuSans-63"/>
     <use x="355.046875" xlink:href="#DejaVuSans-79"/>
     <use x="414.226562" xlink:href="#DejaVuSans-63"/>
     <use x="469.207031" xlink:href="#DejaVuSans-6c"/>
     <use x="496.990234" xlink:href="#DejaVuSans-69"/>
     <use x="524.773438" xlink:href="#DejaVuSans-73"/>
     <use x="576.873047" xlink:href="#DejaVuSans-74"/>
    </g>
   </g>
   <g id="text_30">
    <!-- fence -->
    <g style="fill:#ffffff;" transform="translate(396.8144 76.154942)rotate(-90)scale(0.06 -0.06)">
     <use xlink:href="#DejaVuSans-66"/>
     <use x="35.205078" xlink:href="#DejaVuSans-65"/>
     <use x="96.728516" xlink:href="#DejaVuSans-6e"/>
     <use x="160.107422" xlink:href="#DejaVuSans-63"/>
     <use x="215.087891" xlink:href="#DejaVuSans-65"/>
    </g>
   </g>
   <g id="text_31">
    <!-- pole -->
    <g style="fill:#ffffff;" transform="translate(412.622657 76.154942)rotate(-90)scale(0.06 -0.06)">
     <use xlink:href="#DejaVuSans-70"/>
     <use x="63.476562" xlink:href="#DejaVuSans-6f"/>
     <use x="124.658203" xlink:href="#DejaVuSans-6c"/>
     <use x="152.441406" xlink:href="#DejaVuSans-65"/>
    </g>
   </g>
   <g id="text_32">
    <!-- traffic sign -->
    <g transform="translate(428.430913 76.154942)rotate(-90)scale(0.06 -0.06)">
     <use xlink:href="#DejaVuSans-74"/>
     <use x="39.208984" xlink:href="#DejaVuSans-72"/>
     <use x="80.322266" xlink:href="#DejaVuSans-61"/>
     <use x="141.601562" xlink:href="#DejaVuSans-66"/>
     <use x="176.806641" xlink:href="#DejaVuSans-66"/>
     <use x="212.011719" xlink:href="#DejaVuSans-69"/>
     <use x="239.794922" xlink:href="#DejaVuSans-63"/>
     <use x="294.775391" xlink:href="#DejaVuSans-20"/>
     <use x="326.5625" xlink:href="#DejaVuSans-73"/>
     <use x="378.662109" xlink:href="#DejaVuSans-69"/>
     <use x="406.445312" xlink:href="#DejaVuSans-67"/>
     <use x="469.921875" xlink:href="#DejaVuSans-6e"/>
    </g>
   </g>
   <g id="text_33">
    <!-- other-object $^1$ -->
    <g transform="translate(444.653545 76.154942)rotate(-90)scale(0.06 -0.06)">
     <use transform="translate(0 0.684375)" xlink:href="#DejaVuSans-6f"/>
     <use transform="translate(61.181641 0.684375)" xlink:href="#DejaVuSans-74"/>
     <use transform="translate(100.390625 0.684375)" xlink:href="#DejaVuSans-68"/>
     <use transform="translate(163.769531 0.684375)" xlink:href="#DejaVuSans-65"/>
     <use transform="translate(225.292969 0.684375)" xlink:href="#DejaVuSans-72"/>
     <use transform="translate(266.40625 0.684375)" xlink:href="#DejaVuSans-2d"/>
     <use transform="translate(302.490234 0.684375)" xlink:href="#DejaVuSans-6f"/>
     <use transform="translate(363.671875 0.684375)" xlink:href="#DejaVuSans-62"/>
     <use transform="translate(427.148438 0.684375)" xlink:href="#DejaVuSans-6a"/>
     <use transform="translate(454.931641 0.684375)" xlink:href="#DejaVuSans-65"/>
     <use transform="translate(516.455078 0.684375)" xlink:href="#DejaVuSans-63"/>
     <use transform="translate(571.435547 0.684375)" xlink:href="#DejaVuSans-74"/>
     <use transform="translate(610.644531 0.684375)" xlink:href="#DejaVuSans-20"/>
     <use transform="translate(643.388672 38.965625)scale(0.7)" xlink:href="#DejaVuSans-31"/>
    </g>
   </g>
   <g id="text_34">
    <!-- outlier $^1$ -->
    <g transform="translate(475.855683 76.154942)rotate(-90)scale(0.06 -0.06)">
     <use transform="translate(0 0.684375)" xlink:href="#DejaVuSans-6f"/>
     <use transform="translate(61.181641 0.684375)" xlink:href="#DejaVuSans-75"/>
     <use transform="translate(124.560547 0.684375)" xlink:href="#DejaVuSans-74"/>
     <use transform="translate(163.769531 0.684375)" xlink:href="#DejaVuSans-6c"/>
     <use transform="translate(191.552734 0.684375)" xlink:href="#DejaVuSans-69"/>
     <use transform="translate(219.335938 0.684375)" xlink:href="#DejaVuSans-65"/>
     <use transform="translate(280.859375 0.684375)" xlink:href="#DejaVuSans-72"/>
     <use transform="translate(321.972656 0.684375)" xlink:href="#DejaVuSans-20"/>
     <use transform="translate(354.716797 38.965625)scale(0.7)" xlink:href="#DejaVuSans-31"/>
    </g>
   </g>
   <g id="text_35">
    <!-- $^1$ ignored for evaluation -->
    <g transform="translate(410.210897 15.880225)scale(0.06 -0.06)">
     <use transform="translate(0.957031 38.965625)scale(0.7)" xlink:href="#DejaVuSans-31"/>
     <use transform="translate(48.227539 0.684375)" xlink:href="#DejaVuSans-20"/>
     <use transform="translate(80.014648 0.684375)" xlink:href="#DejaVuSans-69"/>
     <use transform="translate(107.797852 0.684375)" xlink:href="#DejaVuSans-67"/>
     <use transform="translate(171.274414 0.684375)" xlink:href="#DejaVuSans-6e"/>
     <use transform="translate(234.65332 0.684375)" xlink:href="#DejaVuSans-6f"/>
     <use transform="translate(295.834961 0.684375)" xlink:href="#DejaVuSans-72"/>
     <use transform="translate(336.948242 0.684375)" xlink:href="#DejaVuSans-65"/>
     <use transform="translate(398.47168 0.684375)" xlink:href="#DejaVuSans-64"/>
     <use transform="translate(461.948242 0.684375)" xlink:href="#DejaVuSans-20"/>
     <use transform="translate(493.735352 0.684375)" xlink:href="#DejaVuSans-66"/>
     <use transform="translate(528.94043 0.684375)" xlink:href="#DejaVuSans-6f"/>
     <use transform="translate(590.12207 0.684375)" xlink:href="#DejaVuSans-72"/>
     <use transform="translate(631.235352 0.684375)" xlink:href="#DejaVuSans-20"/>
     <use transform="translate(663.022461 0.684375)" xlink:href="#DejaVuSans-65"/>
     <use transform="translate(724.545898 0.684375)" xlink:href="#DejaVuSans-76"/>
     <use transform="translate(783.725586 0.684375)" xlink:href="#DejaVuSans-61"/>
     <use transform="translate(845.004883 0.684375)" xlink:href="#DejaVuSans-6c"/>
     <use transform="translate(872.788086 0.684375)" xlink:href="#DejaVuSans-75"/>
     <use transform="translate(936.166992 0.684375)" xlink:href="#DejaVuSans-61"/>
     <use transform="translate(997.446289 0.684375)" xlink:href="#DejaVuSans-74"/>
     <use transform="translate(1036.655273 0.684375)" xlink:href="#DejaVuSans-69"/>
     <use transform="translate(1064.438477 0.684375)" xlink:href="#DejaVuSans-6f"/>
     <use transform="translate(1125.620117 0.684375)" xlink:href="#DejaVuSans-6e"/>
    </g>
   </g>
  </g>
 </g>
 <defs>
  <clipPath id="p0987d61e29">
   <rect height="74.01125" width="450.535311" x="35.520939" y="9"/>
  </clipPath>
 </defs>
 <defs>
  <pattern height="72" id="h9d28241141" patternUnits="userSpaceOnUse" width="72" x="0" y="0">
   <rect fill="#422d3d" height="73" width="73" x="0" y="0"/>
   <path d="M -36 36 
L 36 -36 
M -30 42 
L 42 -30 
M -24 48 
L 48 -24 
M -18 54 
L 54 -18 
M -12 60 
L 60 -12 
M -6 66 
L 66 -6 
M 0 72 
L 72 0 
M 6 78 
L 78 6 
M 12 84 
L 84 12 
M 18 90 
L 90 18 
M 24 96 
L 96 24 
M 30 102 
L 102 30 
M 36 108 
L 108 36 
" style="fill:#ceb8c9;stroke:#ceb8c9;stroke-linecap:butt;stroke-linejoin:miter;stroke-width:3.0;"/>
  </pattern>
  <pattern height="72" id="hb0361dbc06" patternUnits="userSpaceOnUse" width="72" x="0" y="0">
   <rect fill="#64465f" height="73" width="73" x="0" y="0"/>
   <path d="M -36 36 
L 36 -36 
M -30 42 
L 42 -30 
M -24 48 
L 48 -24 
M -18 54 
L 54 -18 
M -12 60 
L 60 -12 
M -6 66 
L 66 -6 
M 0 72 
L 72 0 
M 6 78 
L 78 6 
M 12 84 
L 84 12 
M 18 90 
L 90 18 
M 24 96 
L 96 24 
M 30 102 
L 102 30 
M 36 108 
L 108 36 
" style="fill:#d5c3d2;stroke:#d5c3d2;stroke-linecap:butt;stroke-linejoin:miter;stroke-width:3.0;"/>
  </pattern>
  <pattern height="72" id="hfa77f60170" patternUnits="userSpaceOnUse" width="72" x="0" y="0">
   <rect fill="#886282" height="73" width="73" x="0" y="0"/>
   <path d="M -36 36 
L 36 -36 
M -30 42 
L 42 -30 
M -24 48 
L 48 -24 
M -18 54 
L 54 -18 
M -12 60 
L 60 -12 
M -6 66 
L 66 -6 
M 0 72 
L 72 0 
M 6 78 
L 78 6 
M 12 84 
L 84 12 
M 18 90 
L 90 18 
M 24 96 
L 96 24 
M 30 102 
L 102 30 
M 36 108 
L 108 36 
" style="fill:#dccfda;stroke:#dccfda;stroke-linecap:butt;stroke-linejoin:miter;stroke-width:3.0;"/>
  </pattern>
  <pattern height="72" id="hea841d10f8" patternUnits="userSpaceOnUse" width="72" x="0" y="0">
   <rect fill="#ad7fa8" height="73" width="73" x="0" y="0"/>
   <path d="M -36 36 
L 36 -36 
M -30 42 
L 42 -30 
M -24 48 
L 48 -24 
M -18 54 
L 54 -18 
M -12 60 
L 60 -12 
M -6 66 
L 66 -6 
M 0 72 
L 72 0 
M 6 78 
L 78 6 
M 12 84 
L 84 12 
M 18 90 
L 90 18 
M 24 96 
L 96 24 
M 30 102 
L 102 30 
M 36 108 
L 108 36 
" style="fill:#e6d9e5;stroke:#e6d9e5;stroke-linecap:butt;stroke-linejoin:miter;stroke-width:3.0;"/>
  </pattern>
  <pattern height="72" id="hf39189199e" patternUnits="userSpaceOnUse" width="72" x="0" y="0">
   <rect fill="#ff0000" height="73" width="73" x="0" y="0"/>
   <path d="M -36 36 
L 36 -36 
M -30 42 
L 42 -30 
M -24 48 
L 48 -24 
M -18 54 
L 54 -18 
M -12 60 
L 60 -12 
M -6 66 
L 66 -6 
M 0 72 
L 72 0 
M 6 78 
L 78 6 
M 12 84 
L 84 12 
M 18 90 
L 90 18 
M 24 96 
L 96 24 
M 30 102 
L 102 30 
M 36 108 
L 108 36 
" style="fill:#ffb2b2;stroke:#ffb2b2;stroke-linecap:butt;stroke-linejoin:miter;stroke-width:3.0;"/>
  </pattern>
  <pattern height="72" id="h17f0b754a5" patternUnits="userSpaceOnUse" width="72" x="0" y="0">
   <rect fill="#716c2c" height="73" width="73" x="0" y="0"/>
   <path d="M -36 36 
L 36 -36 
M -30 42 
L 42 -30 
M -24 48 
L 48 -24 
M -18 54 
L 54 -18 
M -12 60 
L 60 -12 
M -6 66 
L 66 -6 
M 0 72 
L 72 0 
M 6 78 
L 78 6 
M 12 84 
L 84 12 
M 18 90 
L 90 18 
M 24 96 
L 96 24 
M 30 102 
L 102 30 
M 36 108 
L 108 36 
" style="fill:#e1deb3;stroke:#e1deb3;stroke-linecap:butt;stroke-linejoin:miter;stroke-width:3.0;"/>
  </pattern>
  <pattern height="72" id="h955cc6b328" patternUnits="userSpaceOnUse" width="72" x="0" y="0">
   <rect fill="#b9b24e" height="73" width="73" x="0" y="0"/>
   <path d="M -36 36 
L 36 -36 
M -30 42 
L 42 -30 
M -24 48 
L 48 -24 
M -18 54 
L 54 -18 
M -12 60 
L 60 -12 
M -6 66 
L 66 -6 
M 0 72 
L 72 0 
M 6 78 
L 78 6 
M 12 84 
L 84 12 
M 18 90 
L 90 18 
M 24 96 
L 96 24 
M 30 102 
L 102 30 
M 36 108 
L 108 36 
" style="fill:#eae8ca;stroke:#eae8ca;stroke-linecap:butt;stroke-linejoin:miter;stroke-width:3.0;"/>
  </pattern>
  <pattern height="72" id="h566cdfc1fe" patternUnits="userSpaceOnUse" width="72" x="0" y="0">
   <rect fill="#1d3d47" height="73" width="73" x="0" y="0"/>
   <path d="M -36 36 
L 36 -36 
M -30 42 
L 42 -30 
M -24 48 
L 48 -24 
M -18 54 
L 54 -18 
M -12 60 
L 60 -12 
M -6 66 
L 66 -6 
M 0 72 
L 72 0 
M 6 78 
L 78 6 
M 12 84 
L 84 12 
M 18 90 
L 90 18 
M 24 96 
L 96 24 
M 30 102 
L 102 30 
M 36 108 
L 108 36 
" style="fill:#a8cfdb;stroke:#a8cfdb;stroke-linecap:butt;stroke-linejoin:miter;stroke-width:3.0;"/>
  </pattern>
  <pattern height="72" id="h0c0264cd64" patternUnits="userSpaceOnUse" width="72" x="0" y="0">
   <rect fill="#2a535f" height="73" width="73" x="0" y="0"/>
   <path d="M -36 36 
L 36 -36 
M -30 42 
L 42 -30 
M -24 48 
L 48 -24 
M -18 54 
L 54 -18 
M -12 60 
L 60 -12 
M -6 66 
L 66 -6 
M 0 72 
L 72 0 
M 6 78 
L 78 6 
M 12 84 
L 84 12 
M 18 90 
L 90 18 
M 24 96 
L 96 24 
M 30 102 
L 102 30 
M 36 108 
L 108 36 
" style="fill:#b1d3dd;stroke:#b1d3dd;stroke-linecap:butt;stroke-linejoin:miter;stroke-width:3.0;"/>
  </pattern>
  <pattern height="72" id="hd3c280e24e" patternUnits="userSpaceOnUse" width="72" x="0" y="0">
   <rect fill="#5399b0" height="73" width="73" x="0" y="0"/>
   <path d="M -36 36 
L 36 -36 
M -30 42 
L 42 -30 
M -24 48 
L 48 -24 
M -18 54 
L 54 -18 
M -12 60 
L 60 -12 
M -6 66 
L 66 -6 
M 0 72 
L 72 0 
M 6 78 
L 78 6 
M 12 84 
L 84 12 
M 18 90 
L 90 18 
M 24 96 
L 96 24 
M 30 102 
L 102 30 
M 36 108 
L 108 36 
" style="fill:#cbe0e7;stroke:#cbe0e7;stroke-linecap:butt;stroke-linejoin:miter;stroke-width:3.0;"/>
  </pattern>
  <pattern height="72" id="hbaaa7498d8" patternUnits="userSpaceOnUse" width="72" x="0" y="0">
   <rect fill="#62b2cd" height="73" width="73" x="0" y="0"/>
   <path d="M -36 36 
L 36 -36 
M -30 42 
L 42 -30 
M -24 48 
L 48 -24 
M -18 54 
L 54 -18 
M -12 60 
L 60 -12 
M -6 66 
L 66 -6 
M 0 72 
L 72 0 
M 6 78 
L 78 6 
M 12 84 
L 84 12 
M 18 90 
L 90 18 
M 24 96 
L 96 24 
M 30 102 
L 102 30 
M 36 108 
L 108 36 
" style="fill:#d0e8f0;stroke:#d0e8f0;stroke-linecap:butt;stroke-linejoin:miter;stroke-width:3.0;"/>
  </pattern>
  <pattern height="72" id="hbb24b31d2c" patternUnits="userSpaceOnUse" width="72" x="0" y="0">
   <rect fill="#72ccea" height="73" width="73" x="0" y="0"/>
   <path d="M -36 36 
L 36 -36 
M -30 42 
L 42 -30 
M -24 48 
L 48 -24 
M -18 54 
L 54 -18 
M -12 60 
L 60 -12 
M -6 66 
L 66 -6 
M 0 72 
L 72 0 
M 6 78 
L 78 6 
M 12 84 
L 84 12 
M 18 90 
L 90 18 
M 24 96 
L 96 24 
M 30 102 
L 102 30 
M 36 108 
L 108 36 
" style="fill:#d5f0f9;stroke:#d5f0f9;stroke-linecap:butt;stroke-linejoin:miter;stroke-width:3.0;"/>
  </pattern>
  <pattern height="72" id="hcb8a8c60af" patternUnits="userSpaceOnUse" width="72" x="0" y="0">
   <rect fill="#1e341c" height="73" width="73" x="0" y="0"/>
   <path d="M -36 36 
L 36 -36 
M -30 42 
L 42 -30 
M -24 48 
L 48 -24 
M -18 54 
L 54 -18 
M -12 60 
L 60 -12 
M -6 66 
L 66 -6 
M 0 72 
L 72 0 
M 6 78 
L 78 6 
M 12 84 
L 84 12 
M 18 90 
L 90 18 
M 24 96 
L 96 24 
M 30 102 
L 102 30 
M 36 108 
L 108 36 
" style="fill:#aed2ab;stroke:#aed2ab;stroke-linecap:butt;stroke-linejoin:miter;stroke-width:3.0;"/>
  </pattern>
  <pattern height="72" id="h3023d2e6f2" patternUnits="userSpaceOnUse" width="72" x="0" y="0">
   <rect fill="#41693e" height="73" width="73" x="0" y="0"/>
   <path d="M -36 36 
L 36 -36 
M -30 42 
L 42 -30 
M -24 48 
L 48 -24 
M -18 54 
L 54 -18 
M -12 60 
L 60 -12 
M -6 66 
L 66 -6 
M 0 72 
L 72 0 
M 6 78 
L 78 6 
M 12 84 
L 84 12 
M 18 90 
L 90 18 
M 24 96 
L 96 24 
M 30 102 
L 102 30 
M 36 108 
L 108 36 
" style="fill:#c0d9be;stroke:#c0d9be;stroke-linecap:butt;stroke-linejoin:miter;stroke-width:3.0;"/>
  </pattern>
  <pattern height="72" id="h320d4546e2" patternUnits="userSpaceOnUse" width="72" x="0" y="0">
   <rect fill="#60a76d" height="73" width="73" x="0" y="0"/>
   <path d="M -36 36 
L 36 -36 
M -30 42 
L 42 -30 
M -24 48 
L 48 -24 
M -18 54 
L 54 -18 
M -12 60 
L 60 -12 
M -6 66 
L 66 -6 
M 0 72 
L 72 0 
M 6 78 
L 78 6 
M 12 84 
L 84 12 
M 18 90 
L 90 18 
M 24 96 
L 96 24 
M 30 102 
L 102 30 
M 36 108 
L 108 36 
" style="fill:#cfe5d3;stroke:#cfe5d3;stroke-linecap:butt;stroke-linejoin:miter;stroke-width:3.0;"/>
  </pattern>
  <pattern height="72" id="h6265ff1fe4" patternUnits="userSpaceOnUse" width="72" x="0" y="0">
   <rect fill="#5f211e" height="73" width="73" x="0" y="0"/>
   <path d="M -36 36 
L 36 -36 
M -30 42 
L 42 -30 
M -24 48 
L 48 -24 
M -18 54 
L 54 -18 
M -12 60 
L 60 -12 
M -6 66 
L 66 -6 
M 0 72 
L 72 0 
M 6 78 
L 78 6 
M 12 84 
L 84 12 
M 18 90 
L 90 18 
M 24 96 
L 96 24 
M 30 102 
L 102 30 
M 36 108 
L 108 36 
" style="fill:#e3aaa7;stroke:#e3aaa7;stroke-linecap:butt;stroke-linejoin:miter;stroke-width:3.0;"/>
  </pattern>
  <pattern height="72" id="he30edf343b" patternUnits="userSpaceOnUse" width="72" x="0" y="0">
   <rect fill="#d7554b" height="73" width="73" x="0" y="0"/>
   <path d="M -36 36 
L 36 -36 
M -30 42 
L 42 -30 
M -24 48 
L 48 -24 
M -18 54 
L 54 -18 
M -12 60 
L 60 -12 
M -6 66 
L 66 -6 
M 0 72 
L 72 0 
M 6 78 
L 78 6 
M 12 84 
L 84 12 
M 18 90 
L 90 18 
M 24 96 
L 96 24 
M 30 102 
L 102 30 
M 36 108 
L 108 36 
" style="fill:#f3ccc9;stroke:#f3ccc9;stroke-linecap:butt;stroke-linejoin:miter;stroke-width:3.0;"/>
  </pattern>
  <pattern height="72" id="h978b45b2a9" patternUnits="userSpaceOnUse" width="72" x="0" y="0">
   <rect fill="#6a4124" height="73" width="73" x="0" y="0"/>
   <path d="M -36 36 
L 36 -36 
M -30 42 
L 42 -30 
M -24 48 
L 48 -24 
M -18 54 
L 54 -18 
M -12 60 
L 60 -12 
M -6 66 
L 66 -6 
M 0 72 
L 72 0 
M 6 78 
L 78 6 
M 12 84 
L 84 12 
M 18 90 
L 90 18 
M 24 96 
L 96 24 
M 30 102 
L 102 30 
M 36 108 
L 108 36 
" style="fill:#e3c3ad;stroke:#e3c3ad;stroke-linecap:butt;stroke-linejoin:miter;stroke-width:3.0;"/>
  </pattern>
  <pattern height="72" id="h7d57350341" patternUnits="userSpaceOnUse" width="72" x="0" y="0">
   <rect fill="#8c5832" height="73" width="73" x="0" y="0"/>
   <path d="M -36 36 
L 36 -36 
M -30 42 
L 42 -30 
M -24 48 
L 48 -24 
M -18 54 
L 54 -18 
M -12 60 
L 60 -12 
M -6 66 
L 66 -6 
M 0 72 
L 72 0 
M 6 78 
L 78 6 
M 12 84 
L 84 12 
M 18 90 
L 90 18 
M 24 96 
L 96 24 
M 30 102 
L 102 30 
M 36 108 
L 108 36 
" style="fill:#e6cbb8;stroke:#e6cbb8;stroke-linecap:butt;stroke-linejoin:miter;stroke-width:3.0;"/>
  </pattern>
  <pattern height="72" id="h4bca444241" patternUnits="userSpaceOnUse" width="72" x="0" y="0">
   <rect fill="#af6f41" height="73" width="73" x="0" y="0"/>
   <path d="M -36 36 
L 36 -36 
M -30 42 
L 42 -30 
M -24 48 
L 48 -24 
M -18 54 
L 54 -18 
M -12 60 
L 60 -12 
M -6 66 
L 66 -6 
M 0 72 
L 72 0 
M 6 78 
L 78 6 
M 12 84 
L 84 12 
M 18 90 
L 90 18 
M 24 96 
L 96 24 
M 30 102 
L 102 30 
M 36 108 
L 108 36 
" style="fill:#e9d3c4;stroke:#e9d3c4;stroke-linecap:butt;stroke-linejoin:miter;stroke-width:3.0;"/>
  </pattern>
  <pattern height="72" id="h141c582ecd" patternUnits="userSpaceOnUse" width="72" x="0" y="0">
   <rect fill="#fba260" height="73" width="73" x="0" y="0"/>
   <path d="M -36 36 
L 36 -36 
M -30 42 
L 42 -30 
M -24 48 
L 48 -24 
M -18 54 
L 54 -18 
M -12 60 
L 60 -12 
M -6 66 
L 66 -6 
M 0 72 
L 72 0 
M 6 78 
L 78 6 
M 12 84 
L 84 12 
M 18 90 
L 90 18 
M 24 96 
L 96 24 
M 30 102 
L 102 30 
M 36 108 
L 108 36 
" style="fill:#fee3cf;stroke:#fee3cf;stroke-linecap:butt;stroke-linejoin:miter;stroke-width:3.0;"/>
  </pattern>
  <pattern height="72" id="h0a8d6ce1e5" patternUnits="userSpaceOnUse" width="72" x="0" y="0">
   <rect fill="#808080" height="73" width="73" x="0" y="0"/>
   <path d="M -36 36 
L 36 -36 
M -30 42 
L 42 -30 
M -24 48 
L 48 -24 
M -18 54 
L 54 -18 
M -12 60 
L 60 -12 
M -6 66 
L 66 -6 
M 0 72 
L 72 0 
M 6 78 
L 78 6 
M 12 84 
L 84 12 
M 18 90 
L 90 18 
M 24 96 
L 96 24 
M 30 102 
L 102 30 
M 36 108 
L 108 36 
" style="fill:#d9d9d9;stroke:#d9d9d9;stroke-linecap:butt;stroke-linejoin:miter;stroke-width:3.0;"/>
  </pattern>
 </defs>
</svg>
